<?xml version="1.0" encoding="UTF-8" standalone="no"?>
<!-- Created with Inkscape (http://www.inkscape.org/) -->

<svg
   width="20mm"
   height="20mm"
   viewBox="0 0 20 20"
   version="1.1"
   id="svg439"
   inkscape:version="1.2.2 (732a01da63, 2022-12-09)"
   sodipodi:docname="7zip.svg"
   xmlns:inkscape="http://www.inkscape.org/namespaces/inkscape"
   xmlns:sodipodi="http://sodipodi.sourceforge.net/DTD/sodipodi-0.dtd"
   xmlns="http://www.w3.org/2000/svg"
   xmlns:svg="http://www.w3.org/2000/svg">
  <sodipodi:namedview
     id="namedview441"
     pagecolor="#ffffff"
     bordercolor="#000000"
     borderopacity="0.25"
     inkscape:showpageshadow="2"
     inkscape:pageopacity="0.0"
     inkscape:pagecheckerboard="0"
     inkscape:deskcolor="#d1d1d1"
     inkscape:document-units="mm"
     showgrid="false"
     inkscape:zoom="4.1776837"
     inkscape:cx="85.813103"
     inkscape:cy="75.640002"
     inkscape:window-width="1920"
     inkscape:window-height="1009"
     inkscape:window-x="-8"
     inkscape:window-y="-8"
     inkscape:window-maximized="1"
     inkscape:current-layer="layer1" />
  <defs
     id="defs436" />
  <g
     inkscape:label="Слой 1"
     inkscape:groupmode="layer"
     id="layer1">
    <path
       fill="#000000"
       d="M 0.63837512,3.4854607 Q 1.1241662,3.5253467 1.3449798,3.5253467 H 18.642057 q 0.235534,0 0.662439,-0.039886 0.323862,0.053187 0.323862,0.2925315 V 16.675868 q 0,0.212749 -0.279698,0.292531 -0.485791,-0.03988 -0.706603,-0.03988 H 1.3449798 q -0.2355348,0 -0.66244167,0.03988 Q 0.358678,16.915209 0.358678,16.675868 V 3.7779922 q 0,-0.2127496 0.27969712,-0.2925315 z M 1.66884,4.9614028 V 15.47916 q 0,0.21275 0.2502554,0.305824 0.6182785,-0.03989 0.8979755,-0.03989 H 17.169964 q 0.32386,0 0.868535,0.03989 0.235534,0 0.279696,-0.305824 V 4.9614028 q 0,-0.1994487 -0.250255,-0.2925272 -0.603556,0.039877 -0.897976,0.039877 H 2.8170709 q -0.32386,0 -0.8538126,-0.039877 -0.250256,0 -0.2944183,0.2925272 z m 2.0903697,1.3030859 h 0.2502555 q 0.1619305,0 0.1619305,0.039886 l 0.2944188,-0.039886 h 5.8147605 l 0.250255,0.039886 q 0.05888,-0.039886 0.206093,-0.039886 h 0.235536 q 0.235532,0 0.338582,0.1861571 v 7.5525722 q -0.10305,0.186153 -0.338582,0.186153 h -0.235536 q -0.161931,0 -0.161931,-0.03989 l -0.294417,0.03989 H 4.4658145 l -0.2502564,-0.03989 q -0.073605,0.03989 -0.2060929,0.03989 H 3.7592097 q -0.2208135,0 -0.3238602,-0.186153 V 6.4506458 Q 3.5383962,6.2644887 3.7592097,6.2644887 Z m 1.4426496,1.3296785 v 0.8111049 q 0,0.1861533 0.2355355,0.2659343 0.5593951,-0.03988 0.824371,-0.03988 h 0.4563483 q 0.3238602,0 0.853813,0.03988 0.073605,-0.03988 0.4121852,-0.07978 0.2502552,0.07978 0.2502552,0.146265 v 0.186157 q -0.7213237,0.49198 -1.0304636,0.890883 -0.1472094,0 -0.4121858,0.3723086 -0.2649764,0.09308 -0.2796971,0.186157 v 2.486496 q 0.058884,0.146269 0.2796971,0.146269 h 0.2502562 q 0.1619296,0 0.3238596,-0.03989 0.1619297,0.03989 0.3385804,0.03989 h 0.235536 q 0.2208133,0 0.2944172,-0.146269 v -1.701988 l 0.044163,-0.226045 q -0.044163,-0.06648 -0.044163,-0.186153 v -0.226046 q 0,-0.159561 0.4416287,-0.478685 0,-0.03989 1.3248818,-1.1834146 V 7.6340615 Q 9.8831099,7.4479053 9.6622977,7.4479053 H 5.4815573 q -0.2208139,0 -0.279698,0.1462636 z M 12.94506,8.6313184 h 0.250257 q 0.16193,0 0.16193,0.03988 l 0.279697,-0.03988 h 1.898998 l 0.235535,0.03988 q 0.07361,-0.03988 0.206094,-0.03988 h 0.250254 q 0.220814,0 0.323861,0.186153 v 1.2233026 q -0.441628,0.319124 -0.441628,0.478686 v 0.33242 q -0.721324,0.638245 -0.780208,0.638245 -0.08833,0 -0.132488,0.624948 -0.250255,0.09308 -0.529953,0.412203 -0.264977,0.09307 -0.279697,0.186153 v 0.172856 q 0,0.106374 0.279697,0.159564 0.05888,0 0.456347,-0.07978 0.338582,0.03988 0.529954,0.03988 0.103046,0 0.618279,-0.03988 0.235535,0 0.279697,0.292531 v 0.74462 q -0.103047,0.186153 -0.323861,0.186153 h -0.250254 q -0.161932,0 -0.161932,-0.03989 l -0.279697,0.03989 h -1.898998 l -0.235534,-0.03989 q -0.0736,0.03989 -0.206093,0.03989 H 12.94506 q -0.220812,0 -0.323858,-0.186153 v -1.223308 l 0.853813,-0.744615 v -0.332422 q 0,-0.146267 0.456348,-0.478683 0,-0.106375 0.412186,-0.332422 0.04416,-0.06648 0.04416,-0.146263 v -0.332421 q 0,-0.02658 0.397464,-0.292527 V 9.9344004 q 0,-0.106375 -0.279697,-0.15956 -0.397464,0.03989 -0.456349,0.07978 -0.279698,-0.03989 -0.485789,-0.03989 l -0.662442,0.03989 q -0.235534,0 -0.279696,-0.292532 v -0.744619 q 0.103045,-0.186153 0.323858,-0.186153 z"
       id="path2"
       style="stroke-width:0.0139906" />
  </g>
</svg>
