<svg xmlns="http://www.w3.org/2000/svg" viewBox="0 -2048 2048 2048">
	<path fill="#000000" d="M22 -1023Q55 -1020 70 -1020H1245Q1261 -1020 1290 -1023Q1312 -1019 1312 -1001V-31Q1312 -15 1293 -9Q1260 -12 1245 -12H70Q54 -12 25 -9Q3 -13 3 -31V-1001Q3 -1017 22 -1023ZM92 -912V-121Q92 -105 109 -98Q151 -101 170 -101H1145Q1167 -101 1204 -98Q1220 -98 1223 -121V-912Q1223 -927 1206 -934Q1165 -931 1145 -931H170Q148 -931 112 -934Q95 -934 92 -912ZM234 -814H251Q262 -814 262 -811L282 -814H677L694 -811Q698 -814 708 -814H724Q740 -814 747 -800V-232Q740 -218 724 -218H708Q697 -218 697 -221L677 -218H282L265 -221Q260 -218 251 -218H234Q219 -218 212 -232V-800Q219 -814 234 -814ZM332 -714V-653Q332 -639 348 -633Q386 -636 404 -636H435Q457 -636 493 -633Q498 -636 521 -639Q538 -633 538 -628V-614Q489 -577 468 -547Q458 -547 440 -519Q422 -512 421 -505V-318Q425 -307 440 -307H457Q468 -307 479 -310Q490 -307 502 -307H518Q533 -307 538 -318V-446L541 -463Q538 -468 538 -477V-494Q538 -506 568 -530Q568 -533 658 -619V-711Q650 -725 635 -725H351Q336 -725 332 -714ZM858 -636H875Q886 -636 886 -633L905 -636H1034L1050 -633Q1055 -636 1064 -636H1081Q1096 -636 1103 -622V-530Q1073 -506 1073 -494V-469Q1024 -421 1020 -421Q1014 -421 1011 -374Q994 -367 975 -343Q957 -336 956 -329V-316Q956 -308 975 -304Q979 -304 1006 -310Q1029 -307 1042 -307Q1049 -307 1084 -310Q1100 -310 1103 -288V-232Q1096 -218 1081 -218H1064Q1053 -218 1053 -221L1034 -218H905L889 -221Q884 -218 875 -218H858Q843 -218 836 -232V-324L894 -380V-405Q894 -416 925 -441Q925 -449 953 -466Q956 -471 956 -477V-502Q956 -504 983 -524V-538Q983 -546 964 -550Q937 -547 933 -544Q914 -547 900 -547L855 -544Q839 -544 836 -566V-622Q843 -636 858 -636Z"/>
</svg>