<svg xmlns="http://www.w3.org/2000/svg" viewBox="0 -2048 2048 2048">
	<path fill="#000000" d="M442 -1027Q501 -991 601 -914V-1017Q602 -1022 606 -1022H665Q669 -1022 673 -1014V-791Q673 -786 665 -786V-783Q673 -783 673 -760H675Q675 -791 686 -791Q688 -791 716 -798V-1017Q717 -1022 721 -1022H788Q793 -1021 793 -1017V-919Q872 -1022 876 -1022H953Q953 -1010 886 -937Q873 -922 873 -919Q907 -863 914 -860H1009L1014 -858Q1008 -798 983 -798Q966 -783 850 -750V-747Q919 -740 919 -729Q917 -729 893 -696V-693Q937 -687 937 -678Q925 -624 904 -624Q869 -604 809 -580L770 -526V-524Q801 -522 801 -508Q801 -468 703 -436Q678 -401 678 -395H683Q701 -395 701 -390Q701 -356 670 -341Q603 -317 603 -295Q596 -295 596 -280L611 -277V-270Q611 -245 555 -234Q545 -214 514 -177H511Q475 -214 475 -221H457Q422 -221 411 -239V-241Q412 -249 444 -254Q425 -280 416 -285H411Q353 -285 341 -308V-311Q354 -329 383 -329Q350 -367 347 -367H329Q266 -367 257 -398Q252 -398 252 -403Q274 -426 300 -426L264 -467H252Q166 -467 149 -506Q145 -506 139 -516V-521Q139 -535 195 -552V-555Q187 -555 154 -601Q119 -598 105 -598Q42 -598 10 -647Q0 -652 0 -662Q0 -679 56 -701Q67 -701 67 -706Q44 -725 44 -732Q77 -756 434 -763H560V-757Q526 -754 526 -747V-716H521V-750Q516 -747 514 -747V-716Q514 -710 385 -683V-670H388L393 -673L395 -668V-644Q395 -639 385 -639V-637H390Q511 -660 580 -678V-709Q581 -714 585 -714L583 -719V-721Q583 -729 639 -745Q639 -742 642 -742Q644 -746 644 -757H650V-745Q653 -745 660 -763L665 -760H668V-778Q611 -812 508 -891V-788Q508 -783 503 -783H442Q436 -783 436 -788V-1022Q437 -1027 442 -1027ZM67 -1022H185Q290 -1022 290 -963V-955Q290 -922 252 -909V-904Q290 -904 298 -845Q298 -791 223 -783H64Q59 -783 59 -788V-1014Q59 -1018 67 -1022ZM326 -1022H393Q398 -1021 398 -1017V-788Q398 -783 393 -783H326Q321 -783 321 -788V-1017Q322 -1022 326 -1022ZM136 -971V-927H185Q213 -927 213 -947V-950Q213 -971 185 -971ZM136 -883V-834H193Q212 -834 218 -847V-868Q210 -883 190 -883ZM793 -824H796L842 -840Q827 -865 824 -865Q793 -838 793 -824ZM531 -747H537V-719H531ZM552 -575L555 -562V-557Q555 -550 465 -531V-503Q465 -502 460 -496H462Q474 -496 588 -521V-542Q595 -570 626 -570L621 -578V-585L624 -591H621ZM531 -570V-567H544V-573Q540 -570 531 -570ZM449 -529L454 -521V-501Q454 -496 447 -496V-493H457V-529ZM516 -431V-429Q526 -429 526 -424V-419L465 -403Q465 -401 467 -401Q467 -383 457 -383V-380H462Q477 -380 562 -398Q562 -401 560 -406Q562 -431 580 -431Q580 -440 583 -444H580Q574 -444 516 -431ZM519 -326V-324H524V-321Q524 -313 480 -308V-306Q488 -306 488 -300V-298L485 -293H488Q547 -293 547 -316Q547 -326 562 -326L560 -331L562 -336ZM488 -234L490 -229L488 -223H493Q526 -223 526 -241L529 -246H524Q516 -246 490 -234ZM868 -187Q941 -187 973 -123Q978 -114 978 -103V-90Q978 -18 881 -3H850Q757 -22 757 -95Q757 -172 868 -187ZM39 -182H92Q100 -182 141 -90H146Q182 -178 190 -182H239Q244 -181 244 -177Q155 -14 141 0Q107 -50 33 -180ZM272 -182H321Q326 -181 326 -177V-10Q326 -5 321 -5H272Q267 -5 267 -10V-177Q268 -182 272 -182ZM375 -182H457Q529 -182 549 -131Q555 -113 555 -100V-90Q555 -27 483 -8Q461 -5 447 -5H375Q370 -5 370 -10V-177Q371 -182 375 -182ZM593 -182H732Q737 -181 737 -177V-146Q737 -141 732 -141H650L644 -144V-116H729Q734 -115 734 -110V-80Q734 -74 729 -74H644V-49H734Q739 -48 739 -44V-13Q739 -9 732 -5H593Q588 -5 588 -10V-177Q589 -182 593 -182ZM426 -144V-46H462Q496 -46 496 -95Q496 -144 452 -144ZM819 -103V-85Q819 -56 860 -49H876Q913 -49 919 -92V-95Q912 -139 876 -139H858Q819 -129 819 -103Z"/>
</svg>