<svg xmlns="http://www.w3.org/2000/svg" viewBox="0 -2048 2048 2048">
	<path fill="#000000" d="M428 -997V-993Q304 -728 274 -659H275L383 -737H385V-736L363 -692H364Q508 -749 513 -749Q384 -654 375 -646Q459 -657 640 -679V-676Q637 -676 365 -558Q327 -541 325 -541V-540H327L481 -578V-576Q318 -463 261 -425V-422Q262 -422 618 -178H619V-174Q595 -166 574 -166H568Q540 -166 496 -177Q504 -160 504 -156H502Q415 -209 404 -209H397Q377 -206 377 -202Q385 -197 386 -197V-194Q382 -194 340 -180Q342 -170 342 -168Q342 -151 331 -143H330L327 -144Q293 -82 293 -68H295Q319 -68 319 -53Q314 -31 312 -31Q304 -43 304 -53Q306 -53 306 -54L303 -55H297Q268 -55 212 -19H210Q210 -31 238 -51H236Q230 -51 217 -42L216 -44Q231 -66 255 -66Q270 -65 270 -65Q280 -65 284 -81Q293 -106 313 -145H312Q298 -151 298 -169V-171Q279 -168 259 -168H251L236 -169Q236 -166 224 -157Q169 -102 166 -93Q166 -89 173 -73H172Q162 -78 154 -78Q141 -77 123 -59H122V-60Q122 -70 135 -83H134Q110 -78 76 -53L75 -55V-56Q75 -67 88 -77Q88 -86 128 -92Q162 -100 162 -107L219 -167V-172Q173 -176 112 -213Q71 -250 69 -269Q64 -277 58 -297L49 -292H47V-303Q47 -363 69 -417H58L55 -416L54 -418Q82 -454 82 -471Q76 -512 66 -512L26 -529V-530Q26 -531 37 -541Q31 -538 28 -538V-539L72 -703H75Q78 -656 78 -645H81L171 -860H173Q174 -742 174 -698Z"/>
</svg>