<svg xmlns="http://www.w3.org/2000/svg" viewBox="0 -2048 2048 2048">
	<path fill="#000000" d="M752 -1020Q1110 -1020 1252 -640V-619H1772Q1786 -617 1786 -605V-422Q1786 -408 1772 -408H1434V-366Q1434 -352 1420 -352H1357V-338Q1357 -302 1364 -232L1343 -218H1174Q1174 -204 1139 -162H1174L1245 -155V-134Q1216 -134 1013 -35Q900 0 780 0H717Q366 -15 260 -408H70Q0 -408 0 -485V-548Q0 -619 120 -619H260Q260 -744 471 -935Q629 -1020 752 -1020ZM281 -633H492Q543 -710 591 -710Q605 -733 605 -745H598Q538 -738 499 -738H492Q478 -738 478 -752Q482 -774 570 -788V-802L563 -851Q624 -893 668 -893H675Q682 -893 682 -886Q730 -921 759 -921Q773 -858 795 -858Q816 -909 816 -921Q788 -935 788 -963L802 -970H816Q1083 -923 1083 -795Q1083 -782 1069 -752Q1071 -718 1160 -682Q1181 -640 1181 -633H1231V-640Q1175 -828 1020 -928Q893 -998 788 -998H731Q473 -998 316 -724Q281 -654 281 -633ZM823 -872V-865Q823 -851 844 -851Q886 -858 886 -872Q863 -893 851 -893Q823 -882 823 -872ZM879 -851V-837H914V-844Q914 -858 900 -858Q886 -851 879 -851ZM14 -527V-499Q14 -422 91 -422H155Q239 -422 239 -450V-492H190Q190 -464 148 -464H127Q75 -464 70 -485V-534Q70 -545 91 -555H176Q190 -555 190 -534H239V-548Q239 -598 190 -598H70Q14 -598 14 -527ZM274 -598V-429H330Q330 -471 345 -471H415Q436 -471 436 -429H485V-471L471 -492L485 -513V-570Q485 -581 457 -598ZM520 -598V-429H717V-464H591Q577 -464 577 -478Q579 -492 591 -492H703V-527H591Q577 -527 577 -541Q579 -555 591 -555H710V-598ZM731 -429H795Q798 -457 816 -457H907L935 -429H984Q919 -562 886 -598H830Q820 -597 731 -429ZM956 -598V-555H1013Q1027 -553 1027 -541V-429H1083V-541Q1083 -555 1160 -563V-598ZM1188 -598V-429H1238V-598ZM1273 -548V-457Q1283 -422 1364 -422H1413Q1494 -422 1505 -457V-548Q1505 -598 1456 -598H1322Q1273 -598 1273 -548ZM1540 -598V-429H1589V-541H1596Q1689 -429 1695 -429H1772V-598H1723V-485H1716Q1710 -485 1617 -598ZM345 -555H422Q436 -553 436 -541V-527Q436 -513 422 -513H345Q330 -513 330 -527V-541Q333 -555 345 -555ZM1343 -555H1434Q1445 -555 1456 -534V-492Q1444 -464 1406 -464H1371Q1333 -464 1322 -492V-513Q1326 -555 1343 -555ZM851 -548H858Q876 -548 886 -492H844Q830 -492 830 -506Q851 -539 851 -548ZM281 -394V-387Q321 -223 464 -113Q607 -14 759 -14Q982 -14 1146 -204V-211H1125Q981 -70 907 -70Q825 -70 795 -141Q753 -170 633 -176Q619 -193 541 -197H534V-183L591 -105Q580 -77 570 -77Q399 -154 316 -345Q309 -394 295 -394ZM1034 -380V-239H1048V-295Q1050 -309 1062 -309H1069L1174 -239H1202V-246Q1196 -246 1104 -302V-316L1188 -380H1167Q1086 -323 1062 -323Q1048 -323 1048 -338V-380ZM1216 -380V-239H1238V-380ZM1252 -380Q1252 -366 1329 -359V-239H1343V-352Q1343 -366 1420 -373V-380ZM450 -274V-260Q450 -218 499 -204L527 -225Q527 -248 450 -274ZM710 -211V-190H759V-204L752 -218Q742 -211 710 -211Z"/>
</svg>