<svg xmlns="http://www.w3.org/2000/svg" viewBox="0 -2048 2048 2048">
	<path fill="#000000" d="M762 -1024H765V-1021H762ZM823 -1024Q874 -1024 990 -991Q1181 -921 1260 -781Q1286 -729 1286 -693V-684Q1286 -627 1173 -526Q1101 -472 1046 -446Q945 -402 887 -398Q887 -397 881 -397V-399Q970 -415 1112 -530Q1232 -638 1232 -689Q1221 -746 1109 -825Q1010 -885 923 -894Q1013 -829 1013 -732Q1013 -640 934 -577Q882 -540 820 -540Q719 -540 655 -635Q629 -687 629 -733Q629 -890 804 -1013Q819 -1024 823 -1024ZM759 -1022V-1020Q667 -1003 522 -884Q410 -779 410 -731Q410 -696 497 -618Q640 -510 809 -510H822Q915 -510 972 -547H973V-546Q910 -445 820 -396Q726 -404 653 -429Q469 -495 388 -626Q355 -687 355 -726V-735Q355 -782 435 -862Q528 -948 627 -987Q714 -1020 759 -1022ZM649 -728Q649 -641 736 -582Q779 -560 818 -560H823Q915 -560 972 -649Q992 -690 992 -733Q992 -824 906 -881Q863 -903 821 -903Q725 -903 669 -811Q649 -772 649 -728ZM823 -886Q899 -886 950 -816Q975 -775 975 -737V-725Q975 -658 908 -604Q864 -577 825 -577H816Q738 -577 687 -655Q666 -693 666 -726V-736Q666 -809 738 -862Q778 -886 823 -886ZM714 -730Q714 -671 772 -636Q795 -625 816 -625H825Q884 -625 918 -688Q927 -710 927 -731V-734Q927 -795 864 -829Q840 -839 821 -839Q752 -839 720 -767Q714 -747 714 -730ZM822 -800Q868 -800 887 -750Q889 -745 889 -735V-726Q889 -689 845 -667Q833 -664 821 -663Q775 -663 755 -713Q753 -721 753 -728V-734Q753 -780 806 -799ZM1439 -190Q1455 -190 1459 -173V-168Q1459 -154 1439 -151H1437Q1423 -151 1419 -171Q1419 -187 1439 -190ZM1422 -171Q1426 -154 1438 -154Q1455 -156 1455 -169V-172Q1455 -185 1438 -187Q1427 -187 1422 -171ZM1433 -181H1437Q1447 -181 1447 -174Q1447 -173 1443 -169Q1447 -162 1447 -160H1445Q1439 -169 1435 -169Q1434 -160 1431 -160L1430 -162V-179Q1431 -181 1433 -181ZM372 -180Q401 -150 439 -113Q503 -179 504 -179L505 -177V-136Q439 -68 372 -3H371V-45L415 -90Q414 -91 370 -136V-178Q370 -180 372 -180ZM1434 -178V-173Q1434 -171 1436 -171L1443 -172V-176Q1443 -178 1441 -178ZM523 -172H667Q670 -172 670 -170V-145Q670 -143 667 -143H523Q521 -143 521 -145V-170Q521 -172 523 -172ZM687 -172H722L801 -79V-170Q802 -172 804 -172H836Q838 -172 838 -170V-34Q838 -31 836 -31H799L721 -123V-34Q721 -31 719 -31H687Q685 -31 685 -34V-170Q685 -172 687 -172ZM1042 -172H1076Q1078 -172 1078 -170V-34Q1078 -31 1076 -31H1042Q1040 -31 1040 -34V-170Q1040 -172 1042 -172ZM1092 -172H1126Q1129 -171 1206 -79H1207V-170Q1207 -172 1209 -172H1240Q1242 -172 1242 -170V-34Q1242 -31 1240 -31H1204Q1203 -32 1126 -122V-34Q1126 -31 1124 -31H1092Q1090 -31 1090 -34V-170Q1090 -172 1092 -172ZM1257 -172H1402Q1404 -172 1404 -170V-145Q1404 -143 1402 -143H1257Q1254 -143 1254 -145V-170Q1255 -172 1257 -172ZM1481 -172H1627Q1629 -172 1629 -170V-33Q1629 -30 1627 -30H1481Q1479 -30 1479 -33V-59Q1480 -61 1481 -61H1599V-86H1481Q1479 -86 1479 -88V-114Q1480 -117 1481 -117H1599V-140Q1599 -143 1597 -143H1481Q1479 -143 1479 -145V-170Q1480 -172 1481 -172ZM78 -171H173Q175 -171 175 -169V-140Q175 -138 173 -138H70Q69 -138 69 -139Q40 -139 34 -103Q38 -65 67 -65H173Q175 -65 175 -63V-34Q175 -31 173 -31H60Q16 -31 2 -81L0 -99Q0 -150 41 -168Q57 -171 78 -171ZM931 -171H1024Q1025 -156 1025 -148V-141Q1025 -139 1023 -139H922Q890 -139 884 -107L883 -103Q888 -65 915 -65H994V-90Q995 -93 997 -93H1023Q1025 -92 1025 -90V-34Q1025 -31 1023 -31H913Q867 -31 853 -77Q850 -88 850 -97V-103Q850 -160 905 -170Q917 -171 931 -171ZM193 -170H358Q360 -170 360 -168V-138Q360 -137 325 -103H286V-104L319 -138H193Q191 -138 191 -140V-168Q191 -170 193 -170ZM522 -117H667Q670 -116 670 -114V-88Q670 -86 667 -86H522Q520 -86 520 -88V-114Q520 -117 522 -117ZM1257 -117H1402Q1404 -116 1404 -114V-88Q1404 -86 1402 -86H1257Q1254 -86 1254 -88V-114Q1255 -117 1257 -117ZM193 -94H312Q314 -93 361 -45V-3H360L302 -60H221V-33Q221 -30 219 -30H193Q191 -30 191 -33V-92Q191 -94 193 -94ZM522 -61H667Q670 -61 670 -59V-34Q670 -31 667 -31H522Q520 -31 520 -34V-59Q520 -61 522 -61ZM1257 -61H1402Q1404 -61 1404 -59V-34Q1404 -31 1402 -31H1257Q1254 -31 1254 -34V-59Q1255 -61 1257 -61Z"/>
</svg>