<svg xmlns="http://www.w3.org/2000/svg" viewBox="0 -2048 2048 2048">
	<path fill="#000000" d="M167 -1018H475L491 -1007H522Q522 -992 532 -992L527 -956V-930L532 -894Q527 -894 517 -889V-930H511L501 -925L496 -935Q517 -935 517 -946H506V-951L517 -966V-1002H506L511 -992V-987L465 -961Q465 -946 455 -946H450Q450 -963 465 -982H460Q460 -971 439 -971L445 -961Q445 -954 429 -946H424V-956H419Q406 -956 403 -935H398Q390 -935 378 -956Q378 -960 409 -987V-992Q367 -968 367 -961L383 -935L373 -930H362L367 -940Q362 -950 362 -956Q349 -956 347 -935L337 -940V-904H331L316 -915Q311 -905 311 -899H300V-904L306 -915H295V-904H285V-925H280Q280 -910 259 -910Q259 -917 244 -925L234 -920L223 -925H213V-920Q225 -920 234 -915Q244 -920 249 -920Q249 -913 280 -889H367V-899Q417 -889 424 -889V-894L434 -889H439L455 -899H460V-889Q501 -895 501 -915H511V-910L501 -894V-889H517V-879H198L182 -868L187 -858V-709L182 -699H192V-688H182L146 -693V-699L151 -709H141Q141 -703 136 -693Q143 -693 151 -678L115 -647H110V-652Q110 -663 126 -663V-668Q126 -678 115 -678Q115 -671 100 -663Q95 -663 95 -668Q68 -642 33 -642L7 -647Q2 -768 2 -827V-838H12L7 -863Q7 -889 23 -889L17 -899L23 -910Q12 -910 12 -920V-925Q12 -972 95 -1013H115Q127 -1013 136 -1007Q153 -1018 167 -1018ZM877 -1018Q877 -1007 892 -1007V-997Q892 -987 872 -987L892 -966V-961H882V-951Q897 -951 897 -940Q892 -940 892 -935Q897 -935 897 -930H892L908 -904Q892 -904 892 -894Q908 -894 908 -884V-879H810Q803 -879 784 -853V-570Q784 -563 758 -549H640Q609 -563 609 -570V-838Q609 -843 614 -843L609 -853V-894Q609 -907 630 -910V-920H620V-930Q620 -938 640 -946L635 -956Q669 -1018 789 -1018ZM939 -1018H980V-1007H995V-1018H1088V-1007H1098V-1018H1114V-1007H1124V-1018H1134Q1160 -1016 1160 -1007L1170 -1013H1186Q1186 -992 1196 -992L1191 -956V-611L1196 -575L1165 -549H1047Q1027 -565 1016 -565V-570Q1016 -575 1021 -575Q1011 -594 1011 -616V-688L1016 -714L990 -719H949V-729Q958 -729 964 -745L959 -755Q959 -760 964 -760L959 -771L964 -781Q959 -790 959 -802L975 -827V-832L964 -827Q954 -827 954 -838Q964 -838 964 -853H980Q985 -853 985 -848Q993 -853 1016 -853V-874L980 -879H949Q949 -884 944 -894Q949 -904 949 -910Q944 -920 944 -925Q954 -930 959 -930V-935Q937 -935 928 -977Q939 -1008 939 -1018ZM1016 -1013Q1016 -1007 1011 -997V-992H1016Q1016 -997 1021 -1007V-1013ZM347 -982Q352 -972 352 -966H357V-982ZM506 -971V-961H491V-966Q496 -966 506 -971ZM475 -956H486V-940Q486 -930 450 -925Q475 -940 475 -956ZM311 -940V-935H326L331 -946Q322 -940 311 -940ZM429 -940Q439 -939 439 -930V-915H429ZM352 -925V-910Q342 -910 342 -920ZM465 -915H470V-904H455Q456 -915 465 -915ZM162 -874H115L126 -858Q120 -858 120 -853H126L141 -863H146L120 -827Q105 -832 105 -838Q95 -832 89 -832V-827H100V-832Q110 -827 115 -827Q115 -822 95 -791V-786H100Q103 -807 131 -807L126 -796V-786H136Q138 -807 151 -807V-802Q160 -807 172 -807V-832L162 -827H156Q156 -838 172 -838Q172 -843 167 -843L172 -868Q172 -874 167 -874Q167 -889 198 -899V-904H192Q162 -893 162 -874ZM48 -884Q48 -874 38 -874V-853H43Q51 -862 110 -868V-879L59 -868L53 -879Q59 -879 59 -884ZM1057 -884Q1057 -863 1042 -863V-858H1057Q1059 -868 1067 -868H1072V-853L1088 -863H1103Q1103 -853 1088 -853V-848H1108Q1108 -863 1134 -863V-853H1144L1139 -863H1144Q1139 -873 1139 -879L1114 -874H1093V-884H1083L1067 -874V-884ZM1150 -868V-853H1155Q1172 -868 1180 -868V-879H1175Q1162 -868 1150 -868ZM1155 -838Q1155 -848 1144 -848H1139V-843Q1155 -843 1155 -832V-827H1150Q1140 -832 1134 -832V-827Q1139 -818 1139 -807Q1124 -807 1124 -796Q1137 -796 1150 -786Q1150 -791 1155 -791L1160 -781V-776L1139 -781L1129 -776Q1119 -781 1114 -781V-771H1139Q1144 -771 1144 -776L1155 -771H1170V-760H1180V-786L1170 -781H1165V-796H1170L1180 -791V-863Q1177 -863 1155 -838ZM59 -853V-848L79 -843Q74 -853 74 -858Q64 -853 59 -853ZM110 -848V-838Q120 -843 126 -843V-848ZM244 -853H249V-848Q249 -838 239 -838H234V-843Q235 -853 244 -853ZM434 -853Q445 -853 445 -832Q465 -832 465 -853H486V-848Q481 -838 481 -832L501 -848H506V-843Q506 -832 491 -832V-827H506Q506 -843 517 -843H542Q542 -835 553 -822V-673Q515 -570 475 -570L429 -549H126Q118 -549 110 -565Q115 -565 115 -570H100L105 -560H100Q23 -592 23 -637H74Q86 -637 95 -632L105 -637Q114 -637 136 -627Q137 -637 146 -637H151V-621L167 -632Q172 -632 172 -627L182 -632L192 -627Q198 -627 208 -632L239 -627Q254 -637 275 -642V-632H264V-627L290 -621Q300 -621 300 -632V-637L290 -632H285V-642H295V-647L259 -652Q234 -651 234 -642Q177 -647 167 -657L156 -652L146 -668H151L162 -663V-673H151V-678L187 -683L198 -678Q199 -688 208 -688Q213 -688 213 -683L223 -688L249 -683L270 -693L311 -683V-693H316V-683H326V-693H331Q342 -692 342 -683L352 -688L362 -683Q362 -693 373 -693V-709Q373 -719 362 -719H254L228 -714L223 -724V-729H275V-735Q239 -735 239 -745L249 -760V-776H239Q234 -740 223 -740H218V-745Q223 -760 228 -760L223 -771V-786Q213 -786 213 -791L223 -812L213 -817Q218 -827 218 -832H234L228 -807V-796H239Q239 -822 249 -822L285 -817V-812Q264 -812 264 -791Q254 -791 254 -812H249Q249 -798 234 -781Q270 -786 270 -796L280 -791L290 -796V-786Q280 -786 254 -776L259 -766Q254 -756 254 -750H264V-766H270L280 -760Q285 -770 285 -776H306L295 -760H321V-776L300 -781V-791Q326 -791 326 -807H337V-786H326Q328 -776 337 -776Q342 -792 342 -807Q331 -807 331 -817Q337 -817 337 -822L357 -812Q367 -817 373 -817V-807H357V-791H362L378 -802H383V-786H388Q398 -786 398 -807H403L414 -802Q416 -834 434 -843ZM825 -853H897Q910 -843 918 -843V-832H903Q903 -817 923 -817V-796L918 -786H923L918 -776V-771H928V-760H918L923 -750V-745H913Q913 -729 939 -729V-719H841L815 -724Q815 -733 810 -786Q812 -853 825 -853ZM275 -848Q275 -840 259 -832H254V-843Q257 -843 275 -848ZM290 -848V-838L300 -843L306 -832Q293 -822 290 -822Q290 -832 280 -832V-838Q282 -848 290 -848ZM347 -843Q347 -832 362 -832V-827L342 -822L337 -832Q338 -843 347 -843ZM69 -832Q71 -822 79 -822H84V-832ZM316 -838H331Q331 -827 321 -827H316ZM373 -832H398V-822H393L383 -827Q383 -822 378 -822ZM455 -827V-817H470V-827ZM481 -827L475 -796Q483 -796 491 -812Q486 -822 486 -827ZM131 -827H146Q146 -817 136 -817H131ZM429 -822Q429 -817 424 -807H429Q438 -812 450 -812V-822ZM1093 -812V-807Q1098 -807 1108 -802Q1108 -812 1129 -812V-822Q1108 -812 1093 -812ZM1170 -827H1175V-822Q1175 -815 1150 -796H1144Q1162 -827 1170 -827ZM311 -822H321L316 -796H306ZM141 -781V-755L146 -745Q141 -745 141 -740L151 -735V-745H162Q162 -722 167 -714Q162 -704 162 -699H172V-760Q172 -766 167 -766L172 -776V-802Q148 -781 141 -781ZM79 -781Q79 -771 136 -760L131 -771Q136 -771 136 -776Q98 -776 79 -781ZM367 -781Q367 -776 373 -776L367 -766V-760H388V-766H378V-771L383 -781ZM156 -771H162V-766Q162 -755 151 -755L146 -766ZM275 -755V-745Q280 -735 280 -729H311V-735Q295 -735 295 -750L280 -740V-755ZM306 -750V-745H321V-740L316 -729H326Q331 -729 331 -735L342 -729H352Q352 -733 326 -755Q317 -750 306 -750ZM1170 -755V-735H1180V-755ZM347 -750Q347 -741 378 -735L373 -724V-719H378Q378 -728 393 -745Q375 -745 347 -750ZM131 -724V-719Q142 -719 151 -714V-719L146 -729Q136 -724 131 -724ZM1155 -714Q1168 -714 1180 -704V-729Q1155 -723 1155 -714ZM1155 -678L1165 -673V-683H1175V-678L1170 -668H1180V-693H1170Q1163 -693 1155 -678ZM1124 -663L1129 -652V-647Q1116 -647 1114 -668H1103L1108 -657V-647Q1080 -642 1016 -642V-637H1108Q1114 -637 1124 -632L1144 -642Q1147 -621 1160 -621V-632H1170L1180 -627V-652Q1180 -663 1170 -663H1165Q1152 -663 1150 -642Q1139 -642 1139 -652L1155 -673H1144Q1132 -663 1124 -663ZM1119 -575V-570L1139 -565H1150V-570Q1132 -570 1124 -575ZM1155 -575V-570Q1160 -570 1170 -565H1180V-570Q1169 -570 1160 -575ZM146 -570V-565H167V-570ZM146 -493Q215 -493 228 -467L223 -431V-179Q223 -169 259 -163Q269 -169 275 -169V-163L285 -169H306Q311 -169 311 -163L321 -169H398L424 -174L419 -184V-385Q434 -385 434 -395Q424 -400 419 -400V-421H434V-416L429 -405H445V-426L419 -436V-452Q422 -482 434 -482L460 -477Q460 -493 486 -493H506Q594 -493 594 -467Q604 -447 604 -410V-215Q604 -30 460 -30H198Q126 -30 74 -76V-81Q74 -86 79 -86L74 -96V-102Q74 -112 110 -112Q110 -122 100 -122Q100 -117 95 -117Q95 -127 79 -127Q69 -122 64 -122L59 -133V-153L64 -163H53V-174H64L74 -169V-179L69 -189H79V-194H74Q65 -189 53 -189V-199L59 -210L84 -205H89L84 -215L74 -210Q64 -210 64 -225Q69 -235 69 -241H79V-235Q74 -225 74 -220L84 -225L115 -210H120Q120 -215 126 -225H120Q110 -220 105 -220V-230Q105 -235 110 -235L105 -246L110 -256H84L74 -251V-256Q76 -266 84 -266Q84 -261 89 -261Q91 -271 100 -271Q100 -266 105 -266V-277Q105 -287 95 -287L89 -277Q95 -277 95 -271H89Q77 -287 69 -287V-297Q80 -297 84 -318L95 -323V-318Q95 -307 84 -307Q89 -298 89 -292L115 -297V-307L100 -297V-302Q101 -313 110 -313H131L110 -277Q116 -277 126 -271Q136 -284 136 -297H141Q151 -296 151 -287Q144 -287 136 -271V-266H141Q151 -266 151 -287H162V-271L151 -256L162 -251Q172 -272 172 -282Q182 -282 182 -266H192V-277H203Q203 -261 213 -261V-390Q198 -390 198 -400H213V-405L208 -431H198V-421H192L182 -426Q182 -410 172 -410H167Q167 -426 156 -426H151L162 -410Q156 -400 156 -395H146Q146 -407 120 -410V-416H110Q110 -390 79 -369V-359Q84 -349 84 -344L74 -338H64Q55 -338 48 -364L59 -369H64L74 -364V-380L64 -374Q48 -374 48 -431V-477Q48 -493 146 -493ZM769 -493H805V-482H815V-493H831V-482H846V-493H892V-482H908V-493H1026Q1129 -491 1129 -482L1139 -488Q1201 -459 1201 -436L1211 -441V-436Q1211 -426 1196 -426V-421L1206 -405V-390H1196V-395L1201 -405L1191 -410Q1186 -400 1186 -395H1170V-400Q1170 -403 1191 -426H1180L1155 -410H1150Q1150 -426 1139 -426V-405L1144 -395Q1108 -388 1108 -374L1083 -380H1072Q1062 -378 1062 -369L1052 -374H1031Q1031 -364 1057 -364V-354H1031V-364H1000V-354H933V-364H944V-369H939Q918 -367 918 -354H861Q853 -354 841 -333V-55L846 -45Q827 -30 810 -30H702Q674 -30 666 -50V-477Q667 -488 676 -488Q717 -481 717 -467Q712 -458 712 -446Q722 -445 722 -436H712V-431L717 -421L697 -416V-410Q719 -400 722 -400V-395Q722 -390 717 -390Q720 -369 733 -369V-359H722Q722 -349 738 -349V-338L712 -333V-328L743 -318L738 -292Q748 -292 748 -287Q743 -277 743 -271Q753 -270 753 -261V-256L743 -261H722V-256Q748 -255 748 -241V-225H738L748 -210Q748 -205 743 -205L748 -194L717 -122Q717 -112 733 -112Q764 -112 789 -235Q789 -241 784 -241L789 -261V-297H795V-302Q779 -302 779 -328Q789 -328 789 -338H779L784 -364V-369H774L779 -380Q769 -396 769 -405Q774 -405 774 -410Q768 -410 758 -416L764 -426L753 -452ZM177 -452V-446H182L187 -467Q177 -467 177 -452ZM126 -452Q127 -441 136 -441H141Q141 -452 131 -452ZM1139 -452Q1139 -441 1129 -441V-431H1139Q1139 -441 1150 -441V-452ZM450 -421V-416H465V-426Q455 -421 450 -421ZM203 -421V-405Q197 -405 187 -400V-405Q187 -413 203 -421ZM1108 -410V-400Q1114 -400 1124 -395V-405Q1118 -405 1108 -410ZM1222 -410Q1232 -409 1232 -400V-395Q1222 -395 1222 -405ZM110 -400H120L131 -395Q131 -400 136 -400L141 -390L131 -385L120 -390V-380H110ZM439 -395Q441 -385 450 -385L455 -395ZM1165 -390V-380H1170L1180 -385L1186 -374L1175 -369Q1166 -374 1155 -374V-380Q1156 -390 1165 -390ZM1232 -385Q1242 -383 1242 -374Q1242 -364 1232 -364L1222 -380ZM192 -380H198Q208 -378 208 -369Q199 -344 177 -344V-354Q192 -354 192 -380ZM1124 -380H1139V-369H1124ZM182 -369L187 -359Q182 -359 172 -354V-359Q173 -369 182 -369ZM1083 -369V-354H1072V-359Q1074 -369 1083 -369ZM1150 -364H1165V-354H1150ZM131 -359V-354Q131 -344 110 -344V-333H126V-344H146Q141 -335 141 -323H136V-333Q123 -323 115 -323Q105 -328 100 -328Q100 -333 105 -333L100 -344Q101 -354 110 -354L120 -349Q122 -359 131 -359ZM172 -344Q172 -328 192 -328H198V-323L187 -307L198 -302V-313H208V-297Q202 -297 192 -292Q182 -323 162 -323V-333Q163 -344 172 -344ZM59 -333L69 -328Q79 -333 84 -333V-323Q64 -323 64 -302H53V-307Q59 -317 59 -323Q53 -323 53 -328Q59 -328 59 -333ZM897 -328Q911 -328 933 -313V-328H939V-318H949V-328H959Q959 -318 980 -318V-313L975 -302L964 -307H959V-302H969Q969 -294 949 -271L959 -266Q959 -269 995 -302L1000 -292Q992 -292 980 -271V-261Q995 -261 995 -282H1006V-277Q1006 -271 1000 -271L1006 -261V-256H995Q995 -251 1000 -251L995 -241V-235Q1006 -235 1006 -251Q1013 -246 1036 -246Q1036 -241 1031 -241L1036 -230Q1036 -225 1031 -225L1036 -215L1031 -205H1114V-215L1103 -210H1098Q1098 -215 1093 -225L1103 -246Q1098 -256 1098 -261Q1108 -261 1108 -271V-287H1098Q1098 -261 1088 -261L1093 -251V-246Q1093 -235 1083 -235Q1083 -260 1072 -271V-277H1093Q1093 -296 1124 -323V-318Q1124 -307 1114 -307Q1119 -282 1124 -282L1119 -271L1124 -261Q1131 -261 1160 -282H1170V-277Q1170 -261 1150 -261V-256H1170Q1180 -287 1206 -287L1211 -261H1206Q1196 -261 1196 -277H1191Q1191 -261 1180 -261Q1182 -251 1191 -251V-261H1201V-251Q1201 -241 1186 -241V-230Q1207 -230 1232 -313H1237L1242 -302V-297Q1204 -199 1144 -199L1139 -189L1114 -194H897L887 -189L867 -215V-287Q867 -317 897 -328ZM1031 -328V-323Q1026 -313 1026 -307H1011Q1011 -316 1031 -328ZM1083 -328Q1093 -323 1098 -323Q1083 -282 1052 -282L1057 -318Q1045 -318 1036 -277Q1018 -271 1016 -271V-277L1021 -287Q1011 -287 1011 -297V-302Q1026 -302 1026 -282Q1036 -282 1036 -292Q1031 -292 1031 -297Q1036 -297 1036 -302Q1031 -302 1031 -307L1052 -323H1057L1067 -318Q1067 -328 1083 -328ZM151 -323H162L156 -313V-307L167 -313Q177 -311 177 -302Q172 -302 172 -297Q164 -302 141 -302V-313Q151 -313 151 -323ZM1067 -302V-297H1072Q1072 -305 1083 -318H1078Q1067 -318 1067 -302ZM933 -307V-297Q942 -302 954 -302V-307ZM1139 -313H1155L1150 -287H1134L1144 -302V-307L1134 -302H1129Q1131 -313 1139 -313ZM1170 -313Q1182 -313 1191 -307Q1201 -313 1206 -313Q1206 -307 1211 -307Q1211 -313 1217 -313V-302Q1205 -302 1196 -297Q1187 -302 1175 -302Q1175 -297 1170 -297ZM1042 -266H1047V-256Q1047 -246 1036 -246L1031 -256Q1033 -266 1042 -266ZM192 -256V-251Q208 -251 208 -230H213V-256ZM939 -256Q939 -246 954 -246L980 -251Q980 -246 985 -246L990 -256ZM1011 -261H1026Q1026 -251 1016 -251H1011ZM1108 -256V-251L1114 -241L1124 -246H1129V-235H1139V-256ZM1062 -251V-246Q1062 -235 1052 -235V-241Q1053 -251 1062 -251ZM969 -241V-235H990V-241ZM1144 -241V-235H1165V-241ZM1103 -225V-220H1124Q1119 -230 1119 -235H1114Q1103 -234 1103 -225ZM177 -225V-215H172L162 -220V-215Q162 -207 177 -199Q177 -211 182 -220V-225ZM975 -225V-220Q985 -220 985 -210H990V-220L980 -225ZM1052 -230H1067V-215Q1060 -215 1052 -230ZM1144 -225L1139 -205Q1148 -210 1160 -210Q1160 -217 1144 -225ZM95 -215V-205Q105 -205 105 -194H115V-205Q107 -205 95 -215ZM126 -210V-179H131Q131 -202 136 -210ZM151 -169H167V-184Q159 -184 151 -169ZM177 -184Q177 -179 172 -169H187V-174Q187 -184 177 -184ZM990 -169H1000V-127H1006L1042 -158H1093L1103 -153V-169H1114Q1160 -169 1186 -117V37Q1174 62 1150 73H985Q944 52 944 22V-122Q944 -169 990 -169ZM74 -153V-138Q84 -138 84 -148ZM203 -143H208Q218 -143 218 -153H213Q203 -151 203 -143ZM1052 -148V-122H1057V-148ZM1067 -107V-102H1083Q1093 -102 1093 -112V-148Q1083 -148 1078 -107ZM969 -138V-102H975V-138ZM779 -117V-112H836V-117ZM79 -102V-96Q100 -96 100 -86Q109 -91 120 -91V-107L95 -102V-107Q85 -102 79 -102ZM1000 -102V-96H1026V-102ZM985 -66V-55H1119V-66ZM985 -45V-35H1119V-45ZM985 -24V-14H1119V-24ZM985 -4V12L995 6H1108L1119 12V-4ZM1031 17V22H1057V17Z"/>
</svg>