<svg xmlns="http://www.w3.org/2000/svg" viewBox="0 -2048 2048 2048">
	<path fill="#000000" d="M433 -1027Q463 -977 487 -922Q517 -927 544 -927Q572 -927 602 -922Q625 -977 656 -1027Q724 -1011 767 -993Q788 -984 800 -977Q800 -937 791 -858Q827 -838 877 -799Q894 -782 895 -782Q946 -816 992 -838Q1060 -763 1086 -715L1089 -711V-710Q1060 -663 1024 -617Q1024 -616 1023 -615V-385Q1023 -366 1022 -328L839 -309Q826 -305 826 -282Q822 -219 821 -214H820Q815 -214 668 -203Q657 -269 655 -281Q648 -291 638 -291H450Q433 -291 431 -266Q422 -206 421 -203Q276 -214 268 -214Q267 -222 261 -297Q256 -311 238 -311Q79 -326 66 -328V-615Q32 -659 8 -696Q8 -697 0 -710V-711Q25 -757 91 -832L98 -838Q145 -814 195 -782Q234 -819 274 -844Q290 -852 297 -858Q291 -906 288 -977Q327 -998 399 -1019ZM187 -502V-495Q187 -447 233 -411Q261 -392 294 -392Q349 -392 384 -442Q400 -468 400 -499Q400 -551 355 -586Q326 -605 294 -605Q241 -605 206 -558Q187 -530 187 -502ZM689 -498V-497Q689 -443 739 -407Q766 -392 795 -392Q851 -392 886 -442Q901 -469 901 -495V-502Q901 -547 862 -582Q831 -605 795 -605Q738 -605 702 -552Q689 -526 689 -498ZM305 -563Q346 -563 369 -521Q375 -504 375 -492Q375 -455 341 -432Q324 -421 304 -421Q263 -421 240 -461Q233 -476 233 -491V-493Q233 -534 275 -557Q290 -563 305 -563ZM785 -563Q827 -563 850 -521Q856 -507 856 -492Q856 -457 825 -434Q807 -421 784 -421Q745 -421 722 -460Q714 -477 714 -492Q714 -533 755 -556Q771 -563 785 -563ZM510 -511V-413Q510 -391 537 -383Q541 -382 545 -382Q569 -382 578 -407Q579 -411 579 -413V-511Q579 -535 550 -542Q547 -543 544 -543Q520 -543 511 -518Q510 -514 510 -511ZM67 -289L225 -273V-272Q230 -186 233 -186Q238 -176 265 -176L440 -164Q457 -167 457 -186Q467 -249 468 -254H620Q622 -254 629 -202Q633 -168 639 -168Q639 -166 650 -164Q838 -177 846 -178Q859 -182 859 -210Q863 -260 864 -273Q864 -274 990 -285Q992 -286 1022 -289Q1023 -288 1023 -287Q1023 -215 1016 -200Q998 -139 940 -96Q904 -70 864 -53Q729 0 551 0H538Q329 0 189 -70Q154 -89 121 -120Q87 -157 78 -184Q66 -211 66 -270V-288Z"/>
</svg>