<?xml version="1.0" encoding="UTF-8"?>
<!DOCTYPE svg PUBLIC "-//W3C//DTD SVG 1.1//EN" "http://www.w3.org/Graphics/SVG/1.1/DTD/svg11.dtd">
<svg xmlns="http://www.w3.org/2000/svg" version="1.1" width="256px" height="256px" style="shape-rendering:geometricPrecision; text-rendering:geometricPrecision; image-rendering:optimizeQuality; fill-rule:evenodd; clip-rule:evenodd" xmlns:xlink="http://www.w3.org/1999/xlink">
<g><path style="opacity:1" fill="#101112" d="M 125.5,109.5 C 126.833,109.5 128.167,109.5 129.5,109.5C 130.575,110.562 131.575,110.562 132.5,109.5C 136.037,103.105 140.537,97.4383 146,92.5C 147.311,86.1825 150.644,81.1825 156,77.5C 157,75.5 158,73.5 159,71.5C 165.162,66.3381 170.995,60.8381 176.5,55C 182.79,52.1881 188.79,48.8548 194.5,45C 202.209,43.3226 209.876,41.4893 217.5,39.5C 222.369,39.9213 227.035,41.088 231.5,43C 234.6,45.7922 236.267,49.2922 236.5,53.5C 235.263,61.1181 233.096,68.4515 230,75.5C 225.406,78.0095 223.406,82.0095 224,87.5C 222.647,88.6853 221.48,90.0186 220.5,91.5C 221.447,93.059 222.113,94.7257 222.5,96.5C 220.866,101.754 218.866,106.754 216.5,111.5C 216.167,111.5 215.833,111.5 215.5,111.5C 215.737,110.209 215.404,109.209 214.5,108.5C 213.094,108.027 212.427,107.027 212.5,105.5C 212.833,104.833 213.167,104.167 213.5,103.5C 213.682,101.325 214.349,99.3254 215.5,97.5C 215.332,95.8295 214.665,94.4961 213.5,93.5C 213.162,90.8431 213.829,88.5098 215.5,86.5C 215.376,85.8933 215.043,85.56 214.5,85.5C 215.568,84.5655 216.901,84.2322 218.5,84.5C 218.737,83.209 218.404,82.209 217.5,81.5C 217.448,79.0971 217.781,76.7638 218.5,74.5C 221.099,73.2392 223.432,71.5725 225.5,69.5C 224.867,66.268 223.867,63.268 222.5,60.5C 220.758,59.0427 218.758,57.876 216.5,57C 213.854,56.5026 211.187,56.3359 208.5,56.5C 208.5,55.8333 208.167,55.5 207.5,55.5C 205.076,54.9695 202.743,54.1362 200.5,53C 198.5,52.3333 196.5,52.3333 194.5,53C 191.205,55.434 187.538,57.1007 183.5,58C 181.959,59.3712 180.625,60.8712 179.5,62.5C 178.167,62.5 177.5,63.1667 177.5,64.5C 175.5,65.8333 173.833,67.5 172.5,69.5C 172.5,70.1667 172.167,70.5 171.5,70.5C 169.973,70.427 168.973,71.0937 168.5,72.5C 165.107,74.5725 162.774,77.5725 161.5,81.5C 156.397,85.3879 153.063,90.3879 151.5,96.5C 150.5,96.8333 149.833,97.5 149.5,98.5C 146.313,100.344 144.313,103.011 143.5,106.5C 139.594,110.657 135.927,114.99 132.5,119.5C 133.577,120.705 134.91,121.372 136.5,121.5C 136.5,121.833 136.5,122.167 136.5,122.5C 135.443,123.206 135.776,123.539 137.5,123.5C 139.261,124.313 140.928,125.313 142.5,126.5C 138.709,126.341 135.042,125.675 131.5,124.5C 130.167,126.5 130.167,128.5 131.5,130.5C 131.833,131.167 132.167,131.833 132.5,132.5C 131.508,132.328 130.842,132.662 130.5,133.5C 130.335,136.518 130.502,139.518 131,142.5C 132.399,143.227 133.899,143.727 135.5,144C 136.609,145.876 137.609,147.709 138.5,149.5C 141.481,158.849 143.814,168.183 145.5,177.5C 145.369,182.848 146.369,187.848 148.5,192.5C 150.342,197.867 152.509,203.2 155,208.5C 158.315,210.324 161.481,212.324 164.5,214.5C 165.71,214.068 166.71,213.401 167.5,212.5C 167.833,212.5 168.167,212.5 168.5,212.5C 168.5,214.167 168.5,215.833 168.5,217.5C 164.726,223.039 160.393,223.539 155.5,219C 153.236,218.764 151.069,218.264 149,217.5C 147.614,210.735 145.447,203.901 142.5,197C 138.616,193.046 136.45,188.212 136,182.5C 135.333,181.833 134.667,181.167 134,180.5C 132.887,173.657 131.721,166.824 130.5,160C 130.493,158.188 131.16,156.688 132.5,155.5C 131.846,153.885 131.346,152.218 131,150.5C 130.433,153.168 129.933,155.834 129.5,158.5C 128.167,158.5 126.833,158.5 125.5,158.5C 125.067,155.834 124.567,153.168 124,150.5C 123.654,152.218 123.154,153.885 122.5,155.5C 123.84,156.688 124.507,158.188 124.5,160C 123.279,166.824 122.113,173.657 121,180.5C 120.333,181.167 119.667,181.833 119,182.5C 118.55,188.212 116.384,193.046 112.5,197C 109.553,203.901 107.386,210.735 106,217.5C 103.931,218.264 101.764,218.764 99.5,219C 94.6072,223.539 90.2738,223.039 86.5,217.5C 86.5,215.833 86.5,214.167 86.5,212.5C 86.8333,212.5 87.1667,212.5 87.5,212.5C 88.2905,213.401 89.2905,214.068 90.5,214.5C 93.5187,212.324 96.6854,210.324 100,208.5C 101.139,204.888 102.806,201.554 105,198.5C 105.494,196.866 105.66,195.199 105.5,193.5C 106.966,192.653 107.8,191.32 108,189.5C 109.015,185.56 109.515,181.56 109.5,177.5C 110.355,171.346 111.689,165.346 113.5,159.5C 114.916,154.488 116.749,149.488 119,144.5C 120.699,143.594 122.533,143.261 124.5,143.5C 124.5,140.167 124.5,136.833 124.5,133.5C 124.158,132.662 123.492,132.328 122.5,132.5C 123.942,131.18 124.608,129.514 124.5,127.5C 119.396,128.887 114.396,130.554 109.5,132.5C 105.003,133.552 101.003,135.552 97.5,138.5C 94.8818,139.945 92.3818,141.611 90,143.5C 88.216,151.067 84.3827,157.4 78.5,162.5C 72.5651,167.665 67.0651,173.331 62,179.5C 60.5456,181.244 60.3789,182.911 61.5,184.5C 62.5,185.833 63.5,187.167 64.5,188.5C 64.0773,190.781 64.744,192.448 66.5,193.5C 64.9365,196.132 65.2699,198.465 67.5,200.5C 67.1667,201.167 66.8333,201.833 66.5,202.5C 64.2475,202.084 62.7475,200.751 62,198.5C 58.8705,192.553 56.5372,186.22 55,179.5C 54,178.833 53,178.167 52,177.5C 51.4739,174.089 50.6406,170.755 49.5,167.5C 51.159,165.025 50.8257,162.858 48.5,161C 48.9177,158.4 50.0844,156.233 52,154.5C 52.9433,151.155 53.7766,147.822 54.5,144.5C 55.1667,145.167 55.8333,145.833 56.5,146.5C 56.5,148.5 56.5,150.5 56.5,152.5C 55.9408,154.679 55.2741,156.846 54.5,159C 54.6301,160.059 55.1301,160.892 56,161.5C 61.3976,156.593 66.8976,151.927 72.5,147.5C 78.5702,143.978 84.9036,141.811 91.5,141C 93.6471,138.763 95.9804,136.763 98.5,135C 97.5842,134.722 96.9175,134.222 96.5,133.5C 99.1873,133.664 101.854,133.497 104.5,133C 104.167,132.667 103.833,132.333 103.5,132C 106.787,130.533 109.454,128.366 111.5,125.5C 113.786,125.405 115.786,124.738 117.5,123.5C 118.167,123.5 118.5,123.167 118.5,122.5C 118.5,122.167 118.5,121.833 118.5,121.5C 120.09,121.372 121.423,120.705 122.5,119.5C 119.073,114.99 115.406,110.657 111.5,106.5C 111.378,103.708 110.044,101.708 107.5,100.5C 106.5,98.8333 105.167,97.5 103.5,96.5C 101.937,90.3879 98.6033,85.3879 93.5,81.5C 92.2307,77.9464 90.2307,74.9464 87.5,72.5C 86.3951,71.3995 85.0618,70.7329 83.5,70.5C 82.8333,70.5 82.5,70.1667 82.5,69.5C 81.1667,67.5 79.5,65.8333 77.5,64.5C 77.5,63.1667 76.8333,62.5 75.5,62.5C 73.9767,59.6356 71.6433,57.969 68.5,57.5C 64.8076,55.4012 60.9743,53.7346 57,52.5C 53.7958,53.568 50.6292,54.568 47.5,55.5C 46.8333,55.5 46.5,55.8333 46.5,56.5C 40.9989,55.7787 36.1656,57.112 32,60.5C 31.1026,63.4899 30.2692,66.4899 29.5,69.5C 30.2826,71.2882 31.6159,72.2882 33.5,72.5C 34.8333,73.8333 36.1667,75.1667 37.5,76.5C 37.5,78.8333 37.5,81.1667 37.5,83.5C 38.5,84.1667 39.5,84.8333 40.5,85.5C 39.9569,85.56 39.6236,85.8933 39.5,86.5C 41.1713,88.5098 41.838,90.8431 41.5,93.5C 40.3349,94.4961 39.6682,95.8295 39.5,97.5C 40.6511,99.3254 41.3178,101.325 41.5,103.5C 43.6854,103.296 45.6854,102.63 47.5,101.5C 48.1667,101.5 48.5,101.833 48.5,102.5C 44.4469,103.718 41.4469,106.218 39.5,110C 39.5699,110.765 39.9033,111.265 40.5,111.5C 40.0805,113.094 39.4138,114.594 38.5,116C 38.6387,117.301 39.3054,118.134 40.5,118.5C 43.6267,119.581 46.9601,120.247 50.5,120.5C 52.9664,121.634 55.633,121.801 58.5,121C 62.8995,118.632 67.5662,117.132 72.5,116.5C 69.3326,118.462 65.9992,120.129 62.5,121.5C 56.6827,122.806 50.8494,122.806 45,121.5C 42.7439,121.547 41.2439,122.547 40.5,124.5C 39.8333,124.5 39.5,124.167 39.5,123.5C 39.8541,120.579 38.8541,118.246 36.5,116.5C 37.1667,115.167 37.8333,113.833 38.5,112.5C 36.3019,107.239 34.3019,101.905 32.5,96.5C 32.8868,94.7257 33.5535,93.059 34.5,91.5C 31.1877,87.909 29.521,83.5757 29.5,78.5C 26.1323,77.2984 23.9657,74.9651 23,71.5C 21.309,65.544 19.809,59.544 18.5,53.5C 18.7332,49.2922 20.3999,45.7922 23.5,43C 27.9646,41.088 32.6313,39.9213 37.5,39.5C 45.124,41.4893 52.7907,43.3226 60.5,45C 66.2096,48.8548 72.2096,52.1881 78.5,55C 84.005,60.8381 89.8384,66.3381 96,71.5C 98.1844,76.6885 101.518,81.0218 106,84.5C 107.197,87.0891 108.197,89.7558 109,92.5C 114.463,97.4383 118.963,103.105 122.5,109.5C 123.425,110.562 124.425,110.562 125.5,109.5 Z"/></g>
<g><path style="opacity:1" fill="#3c33f2" d="M 68.5,57.5 C 68.5774,58.7498 69.244,59.5831 70.5,60C 69.552,60.4828 68.552,60.6495 67.5,60.5C 62.588,59.2602 57.588,58.4268 52.5,58C 50.5087,57.6264 48.842,56.793 47.5,55.5C 50.6292,54.568 53.7958,53.568 57,52.5C 60.9743,53.7346 64.8076,55.4012 68.5,57.5 Z"/></g>
<g><path style="opacity:1" fill="#38359a" d="M 47.5,55.5 C 48.842,56.793 50.5087,57.6264 52.5,58C 57.588,58.4268 62.588,59.2602 67.5,60.5C 67.5,60.8333 67.5,61.1667 67.5,61.5C 61.9063,60.2669 56.2396,59.4335 50.5,59C 48.9336,58.3918 47.6002,57.5585 46.5,56.5C 46.5,55.8333 46.8333,55.5 47.5,55.5 Z"/></g>
<g><path style="opacity:1" fill="#373395" d="M 207.5,55.5 C 208.167,55.5 208.5,55.8333 208.5,56.5C 206.044,58.8676 203.044,59.8676 199.5,59.5C 198.127,59.6567 196.793,59.49 195.5,59C 199.953,58.9751 203.953,57.8084 207.5,55.5 Z"/></g>
<g><path style="opacity:1" fill="#362ff9" d="M 208.5,56.5 C 211.187,56.3359 213.854,56.5026 216.5,57C 218.758,57.876 220.758,59.0427 222.5,60.5C 222.875,63.3965 222.375,66.0632 221,68.5C 218.993,67.3313 216.827,66.6646 214.5,66.5C 214.307,62.551 213.807,62.551 213,66.5C 211.97,64.2236 210.47,63.5569 208.5,64.5C 207.749,63.624 207.249,62.624 207,61.5C 204.942,62.1095 204.109,63.1095 204.5,64.5C 203.808,63.9747 203.308,63.3081 203,62.5C 202.751,63.624 202.251,64.624 201.5,65.5C 200.147,64.3147 198.98,62.9814 198,61.5C 196.251,62.5532 194.751,62.2199 193.5,60.5C 195.735,60.7947 197.735,60.4614 199.5,59.5C 203.044,59.8676 206.044,58.8676 208.5,56.5 Z"/></g>
<g><path style="opacity:1" fill="#393c86" d="M 75.5,62.5 C 76.8333,62.5 77.5,63.1667 77.5,64.5C 75.5183,64.0046 73.5183,63.5046 71.5,63C 72.7932,62.51 74.1266,62.3433 75.5,62.5 Z"/></g>
<g><path style="opacity:1" fill="#3d4190" d="M 179.5,62.5 C 180.873,62.3433 182.207,62.51 183.5,63C 182.906,63.4643 182.239,63.631 181.5,63.5C 180.167,63.8333 178.833,64.1667 177.5,64.5C 177.5,63.1667 178.167,62.5 179.5,62.5 Z"/></g>
<g><path style="opacity:1" fill="#3938f3" d="M 207.5,55.5 C 203.953,57.8084 199.953,58.9751 195.5,59C 196.793,59.49 198.127,59.6567 199.5,59.5C 197.735,60.4614 195.735,60.7947 193.5,60.5C 194.751,62.2199 196.251,62.5532 198,61.5C 198.98,62.9814 200.147,64.3147 201.5,65.5C 202.251,64.624 202.751,63.624 203,62.5C 203.308,63.3081 203.808,63.9747 204.5,64.5C 204.109,63.1095 204.942,62.1095 207,61.5C 207.249,62.624 207.749,63.624 208.5,64.5C 210.47,63.5569 211.97,64.2236 213,66.5C 213.807,62.551 214.307,62.551 214.5,66.5C 216.827,66.6646 218.993,67.3313 221,68.5C 222.375,66.0632 222.875,63.3965 222.5,60.5C 223.867,63.268 224.867,66.268 225.5,69.5C 223.432,71.5725 221.099,73.2392 218.5,74.5C 216.574,72.7073 214.241,71.7073 211.5,71.5C 209.401,70.3882 207.067,69.7215 204.5,69.5C 196.812,68.0875 189.145,66.9209 181.5,66C 180.402,65.2303 180.402,64.397 181.5,63.5C 182.239,63.631 182.906,63.4643 183.5,63C 182.207,62.51 180.873,62.3433 179.5,62.5C 180.625,60.8712 181.959,59.3712 183.5,58C 187.538,57.1007 191.205,55.434 194.5,53C 196.5,52.3333 198.5,52.3333 200.5,53C 202.743,54.1362 205.076,54.9695 207.5,55.5 Z"/></g>
<g><path style="opacity:1" fill="#38379a" d="M 193.5,60.5 C 191.488,61.0138 189.488,61.1805 187.5,61C 189.565,59.4577 191.565,59.291 193.5,60.5 Z"/></g>
<g><path style="opacity:1" fill="#3635f7" d="M 46.5,56.5 C 47.6002,57.5585 48.9336,58.3918 50.5,59C 56.2396,59.4335 61.9063,60.2669 67.5,61.5C 68.3786,64.5873 70.212,65.5873 73,64.5C 74.7215,64.6107 74.8882,65.1107 73.5,66C 71.567,66.2511 69.7337,66.7511 68,67.5C 67.3109,66.6433 66.4776,65.9767 65.5,65.5C 65.8914,66.8905 65.0581,67.8905 63,68.5C 62.6667,68.1667 62.3333,67.8333 62,67.5C 58.0648,68.1378 54.2315,68.8045 50.5,69.5C 45.7221,69.8891 41.2221,71.2224 37,73.5C 35.8615,73.0109 34.6948,72.6775 33.5,72.5C 31.6159,72.2882 30.2826,71.2882 29.5,69.5C 30.2692,66.4899 31.1026,63.4899 32,60.5C 36.1656,57.112 40.9989,55.7787 46.5,56.5 Z"/></g>
<g><path style="opacity:1" fill="#3c46ed" d="M 68.5,57.5 C 71.6433,57.969 73.9767,59.6356 75.5,62.5C 74.1266,62.3433 72.7932,62.51 71.5,63C 73.5183,63.5046 75.5183,64.0046 77.5,64.5C 79.5,65.8333 81.1667,67.5 82.5,69.5C 79.7664,72.1426 76.4331,73.1426 72.5,72.5C 65.4356,69.897 58.1022,68.897 50.5,69.5C 54.2315,68.8045 58.0648,68.1378 62,67.5C 62.3333,67.8333 62.6667,68.1667 63,68.5C 65.0581,67.8905 65.8914,66.8905 65.5,65.5C 66.4776,65.9767 67.3109,66.6433 68,67.5C 69.7337,66.7511 71.567,66.2511 73.5,66C 74.8882,65.1107 74.7215,64.6107 73,64.5C 70.212,65.5873 68.3786,64.5873 67.5,61.5C 67.5,61.1667 67.5,60.8333 67.5,60.5C 68.552,60.6495 69.552,60.4828 70.5,60C 69.244,59.5831 68.5774,58.7498 68.5,57.5 Z"/></g>
<g><path style="opacity:1" fill="#3a47f0" d="M 181.5,63.5 C 180.402,64.397 180.402,65.2303 181.5,66C 189.145,66.9209 196.812,68.0875 204.5,69.5C 197.209,68.8503 190.209,69.8503 183.5,72.5C 179.247,73.1925 175.581,72.1925 172.5,69.5C 173.833,67.5 175.5,65.8333 177.5,64.5C 178.833,64.1667 180.167,63.8333 181.5,63.5 Z"/></g>
<g><path style="opacity:1" fill="#393d97" d="M 50.5,69.5 C 58.1022,68.897 65.4356,69.897 72.5,72.5C 71.7095,73.4013 70.7095,74.0679 69.5,74.5C 66.8082,71.8193 63.4748,70.4859 59.5,70.5C 52.1005,69.8078 45.1005,71.1411 38.5,74.5C 37.7025,74.9569 37.3691,75.6236 37.5,76.5C 36.1667,75.1667 34.8333,73.8333 33.5,72.5C 34.6948,72.6775 35.8615,73.0109 37,73.5C 41.2221,71.2224 45.7221,69.8891 50.5,69.5 Z"/></g>
<g><path style="opacity:1" fill="#363b90" d="M 204.5,69.5 C 207.067,69.7215 209.401,70.3882 211.5,71.5C 204.856,70.5572 198.189,70.3905 191.5,71C 188.975,71.4238 186.975,72.5905 185.5,74.5C 184.5,74.1667 183.833,73.5 183.5,72.5C 190.209,69.8503 197.209,68.8503 204.5,69.5 Z"/></g>
<g><path style="opacity:1" fill="#9d9d9e" d="M 112.5,73.5 C 113.573,74.2506 113.74,75.2506 113,76.5C 112.517,75.552 112.351,74.552 112.5,73.5 Z"/></g>
<g><path style="opacity:1" fill="#9d9d9e" d="M 141.5,73.5 C 142.573,74.2506 142.74,75.2506 142,76.5C 141.517,75.552 141.351,74.552 141.5,73.5 Z"/></g>
<g><path style="opacity:1" fill="#3541f4" d="M 59.5,70.5 C 59.762,71.9778 59.4287,73.3112 58.5,74.5C 56.8003,73.3422 54.967,73.3422 53,74.5C 51.3499,75.8908 50.8499,77.3908 51.5,79C 50.552,79.4828 49.552,79.6495 48.5,79.5C 48.6495,78.448 48.4828,77.448 48,76.5C 46.9367,77.4378 45.7701,78.4378 44.5,79.5C 42.9579,78.2532 41.4579,78.2532 40,79.5C 39.6232,78.0577 38.7899,77.0577 37.5,76.5C 37.3691,75.6236 37.7025,74.9569 38.5,74.5C 45.1005,71.1411 52.1005,69.8078 59.5,70.5 Z"/></g>
<g><path style="opacity:1" fill="#374df1" d="M 59.5,70.5 C 63.4748,70.4859 66.8082,71.8193 69.5,74.5C 68.2599,75.973 67.2599,77.6396 66.5,79.5C 56.8986,81.3172 47.2319,82.6505 37.5,83.5C 37.5,81.1667 37.5,78.8333 37.5,76.5C 38.7899,77.0577 39.6232,78.0577 40,79.5C 41.4579,78.2532 42.9579,78.2532 44.5,79.5C 45.7701,78.4378 46.9367,77.4378 48,76.5C 48.4828,77.448 48.6495,78.448 48.5,79.5C 49.552,79.6495 50.552,79.4828 51.5,79C 50.8499,77.3908 51.3499,75.8908 53,74.5C 54.967,73.3422 56.8003,73.3422 58.5,74.5C 59.4287,73.3112 59.762,71.9778 59.5,70.5 Z"/></g>
<g><path style="opacity:1" fill="#3958eb" d="M 83.5,70.5 C 85.0618,70.7329 86.3951,71.3995 87.5,72.5C 87.7512,74.1703 88.4178,75.6703 89.5,77C 88.354,77.6449 87.354,78.4783 86.5,79.5C 85.5,78.8333 84.5,78.1667 83.5,77.5C 82.9347,79.5096 81.9347,81.1763 80.5,82.5C 77.5534,81.5774 74.5534,80.9107 71.5,80.5C 71.33,81.8221 71.6634,82.9887 72.5,84C 71.8333,84.6667 71.1667,84.6667 70.5,84C 70.33,82.4305 69.9967,80.5972 69.5,78.5C 69.5106,76.9826 70.1772,75.8159 71.5,75C 74.4715,74.2057 77.4715,73.539 80.5,73C 81.9423,72.6232 82.9423,71.7899 83.5,70.5 Z"/></g>
<g><path style="opacity:1" fill="#3956eb" d="M 171.5,70.5 C 171.953,71.4584 172.619,72.2917 173.5,73C 176.877,73.4517 180.211,74.1184 183.5,75C 184.823,75.8159 185.489,76.9826 185.5,78.5C 185.935,81.6127 184.935,82.2793 182.5,80.5C 180.823,81.1869 179.156,81.8535 177.5,82.5C 175.323,82.5861 173.323,83.2528 171.5,84.5C 168.877,82.1252 169.211,79.9586 172.5,78C 170.744,77.7978 169.078,77.2978 167.5,76.5C 167.788,75.1395 168.121,73.8062 168.5,72.5C 168.973,71.0937 169.973,70.427 171.5,70.5 Z"/></g>
<g><path style="opacity:1" fill="#3849ef" d="M 211.5,71.5 C 214.241,71.7073 216.574,72.7073 218.5,74.5C 217.781,76.7638 217.448,79.0971 217.5,81.5C 216.666,82.7479 215.333,83.4146 213.5,83.5C 205.11,82.4905 196.777,81.1572 188.5,79.5C 187.74,77.6396 186.74,75.973 185.5,74.5C 186.975,72.5905 188.975,71.4238 191.5,71C 198.189,70.3905 204.856,70.5572 211.5,71.5 Z"/></g>
<g><path style="opacity:1" fill="#a2a3a4" d="M 114.5,81.5 C 113.402,80.3991 113.235,79.0657 114,77.5C 114.49,78.7932 114.657,80.1266 114.5,81.5 Z"/></g>
<g><path style="opacity:1" fill="#a2a3a4" d="M 140.5,81.5 C 140.343,80.1266 140.51,78.7932 141,77.5C 141.765,79.0657 141.598,80.3991 140.5,81.5 Z"/></g>
<g><path style="opacity:1" fill="#a1a1a2" d="M 114.5,81.5 C 115.404,82.209 115.737,83.209 115.5,84.5C 114.596,83.791 114.263,82.791 114.5,81.5 Z"/></g>
<g><path style="opacity:1" fill="#a1a1a2" d="M 140.5,81.5 C 140.737,82.791 140.404,83.791 139.5,84.5C 139.263,83.209 139.596,82.209 140.5,81.5 Z"/></g>
<g><path style="opacity:1" fill="#3962e5" d="M 168.5,72.5 C 168.121,73.8062 167.788,75.1395 167.5,76.5C 169.078,77.2978 170.744,77.7978 172.5,78C 169.211,79.9586 168.877,82.1252 171.5,84.5C 173.323,83.2528 175.323,82.5861 177.5,82.5C 174.274,86.5453 170.107,89.212 165,90.5C 164.167,90.1667 163.333,89.8333 162.5,89.5C 164.387,86.8474 165.887,84.1808 167,81.5C 165.736,83.607 163.903,84.607 161.5,84.5C 161.5,83.5 161.5,82.5 161.5,81.5C 162.774,77.5725 165.107,74.5725 168.5,72.5 Z"/></g>
<g><path style="opacity:1" fill="#9c9d9d" d="M 115.5,84.5 C 116.525,84.8966 116.692,85.5632 116,86.5C 115.536,85.9056 115.369,85.2389 115.5,84.5 Z"/></g>
<g><path style="opacity:1" fill="#9c9d9d" d="M 139.5,84.5 C 139.631,85.2389 139.464,85.9056 139,86.5C 138.308,85.5632 138.475,84.8966 139.5,84.5 Z"/></g>
<g><path style="opacity:1" fill="#9d9f9f" d="M 117.5,88.5 C 116.833,87.1667 116.833,87.1667 117.5,88.5 Z"/></g>
<g><path style="opacity:1" fill="#9d9f9f" d="M 137.5,87.5 C 138.833,88.1667 138.833,88.1667 137.5,87.5 Z"/></g>
<g><path style="opacity:1" fill="#3657eb" d="M 193.5,83.5 C 194.833,83.5 196.167,83.5 197.5,83.5C 203.167,84.1667 208.833,84.8333 214.5,85.5C 215.043,85.56 215.376,85.8933 215.5,86.5C 213.829,88.5098 213.162,90.8431 213.5,93.5C 213.194,98.0089 211.194,99.1756 207.5,97C 208.448,96.5172 209.448,96.3505 210.5,96.5C 210.671,93.2027 210.005,92.8694 208.5,95.5C 206.163,92.6783 203.163,90.8449 199.5,90C 200.784,89.3162 201.951,89.4829 203,90.5C 203.167,90.1667 203.333,89.8333 203.5,89.5C 202.667,89.1667 201.833,88.8333 201,88.5C 198.092,88.7254 195.592,89.2254 193.5,90C 192.667,87.9189 192.667,85.7522 193.5,83.5 Z"/></g>
<g><path style="opacity:1" fill="#8a8c8c" d="M 117.5,88.5 C 118.167,88.5 118.5,88.8333 118.5,89.5C 118.167,89.1667 117.833,88.8333 117.5,88.5 Z"/></g>
<g><path style="opacity:1" fill="#8a8c8c" d="M 137.5,88.5 C 136.833,89.1667 136.833,89.1667 137.5,88.5 Z"/></g>
<g><path style="opacity:1" fill="#8b8d8d" d="M 118.5,89.5 C 119.167,89.5 119.5,89.8333 119.5,90.5C 119.167,90.1667 118.833,89.8333 118.5,89.5 Z"/></g>
<g><path style="opacity:1" fill="#8b8d8d" d="M 136.5,89.5 C 135.833,90.1667 135.833,90.1667 136.5,89.5 Z"/></g>
<g><path style="opacity:1" fill="#3756ec" d="M 57.5,83.5 C 58.8333,83.5 60.1667,83.5 61.5,83.5C 62.3331,85.7522 62.3331,87.9189 61.5,90C 59.4084,89.2254 56.9084,88.7254 54,88.5C 53.1667,88.8333 52.3333,89.1667 51.5,89.5C 52.5821,89.7486 53.9154,89.9152 55.5,90C 55.0698,90.9195 54.7365,91.7528 54.5,92.5C 52.2492,91.1353 50.2492,91.4686 48.5,93.5C 46.0174,93.3155 43.684,93.3155 41.5,93.5C 41.838,90.8431 41.1713,88.5098 39.5,86.5C 39.6236,85.8933 39.9569,85.56 40.5,85.5C 46.1553,84.7514 51.8219,84.0848 57.5,83.5 Z"/></g>
<g><path style="opacity:1" fill="#898b8b" d="M 119.5,90.5 C 120.167,90.5 120.5,90.8333 120.5,91.5C 120.167,91.1667 119.833,90.8333 119.5,90.5 Z"/></g>
<g><path style="opacity:1" fill="#898b8b" d="M 135.5,90.5 C 134.833,91.1667 134.833,91.1667 135.5,90.5 Z"/></g>
<g><path style="opacity:1" fill="#3761e7" d="M 193.5,83.5 C 192.667,85.7522 192.667,87.9189 193.5,90C 195.592,89.2254 198.092,88.7254 201,88.5C 201.833,88.8333 202.667,89.1667 203.5,89.5C 203.333,89.8333 203.167,90.1667 203,90.5C 201.951,89.4829 200.784,89.3162 199.5,90C 203.163,90.8449 206.163,92.6783 208.5,95.5C 210.005,92.8694 210.671,93.2027 210.5,96.5C 209.448,96.3505 208.448,96.5172 207.5,97C 211.194,99.1756 213.194,98.0089 213.5,93.5C 214.665,94.4961 215.332,95.8295 215.5,97.5C 214.349,99.3254 213.682,101.325 213.5,103.5C 209.53,102.118 205.53,100.618 201.5,99C 199.527,98.5045 197.527,98.3379 195.5,98.5C 195.137,96.2227 194.137,95.5561 192.5,96.5C 191,94.2143 190.667,91.881 191.5,89.5C 188.669,86.3315 189.336,84.3315 193.5,83.5 Z"/></g>
<g><path style="opacity:1" fill="#898b8b" d="M 120.5,91.5 C 121.167,91.5 121.5,91.8333 121.5,92.5C 121.167,92.1667 120.833,91.8333 120.5,91.5 Z"/></g>
<g><path style="opacity:1" fill="#898b8b" d="M 134.5,91.5 C 133.833,92.1667 133.833,92.1667 134.5,91.5 Z"/></g>
<g><path style="opacity:1" fill="#3763e8" d="M 61.5,83.5 C 63.3084,83.4914 64.9751,83.9914 66.5,85C 65.5533,87.1882 65.5533,89.5215 66.5,92C 65.1387,93.5843 64.472,95.4176 64.5,97.5C 63.209,97.2627 62.209,97.596 61.5,98.5C 56.2828,97.8021 51.6161,98.8021 47.5,101.5C 45.6854,102.63 43.6854,103.296 41.5,103.5C 41.3178,101.325 40.6511,99.3254 39.5,97.5C 39.6682,95.8295 40.3349,94.4961 41.5,93.5C 43.684,93.3155 46.0174,93.3155 48.5,93.5C 50.2492,91.4686 52.2492,91.1353 54.5,92.5C 54.7365,91.7528 55.0698,90.9195 55.5,90C 53.9154,89.9152 52.5821,89.7486 51.5,89.5C 52.3333,89.1667 53.1667,88.8333 54,88.5C 56.9084,88.7254 59.4084,89.2254 61.5,90C 62.3331,87.9189 62.3331,85.7522 61.5,83.5 Z"/></g>
<g><path style="opacity:1" fill="#3967e2" d="M 87.5,72.5 C 90.2307,74.9464 92.2307,77.9464 93.5,81.5C 93.5,82.5 93.5,83.5 93.5,84.5C 90.8831,83.5698 88.5497,82.4031 86.5,81C 89.0373,83.9063 91.204,87.073 93,90.5C 93.7494,91.635 93.5827,92.635 92.5,93.5C 89.8333,91.8333 87.1667,90.1667 84.5,88.5C 84.1667,88.6667 83.8333,88.8333 83.5,89C 85.5852,90.0414 87.2519,91.5414 88.5,93.5C 88.2907,94.086 87.9574,94.586 87.5,95C 83.5554,95.6926 80.5554,95.1926 78.5,93.5C 72.0179,90.1559 69.0179,85.1559 69.5,78.5C 69.9967,80.5972 70.33,82.4305 70.5,84C 71.1667,84.6667 71.8333,84.6667 72.5,84C 71.6634,82.9887 71.33,81.8221 71.5,80.5C 74.5534,80.9107 77.5534,81.5774 80.5,82.5C 81.9347,81.1763 82.9347,79.5096 83.5,77.5C 84.5,78.1667 85.5,78.8333 86.5,79.5C 87.354,78.4783 88.354,77.6449 89.5,77C 88.4178,75.6703 87.7512,74.1703 87.5,72.5 Z"/></g>
<g><path style="opacity:1" fill="#939494" d="M 121.5,92.5 C 122.167,92.5 122.5,92.8333 122.5,93.5C 122.167,93.1667 121.833,92.8333 121.5,92.5 Z"/></g>
<g><path style="opacity:1" fill="#939494" d="M 133.5,92.5 C 132.833,93.1667 132.833,93.1667 133.5,92.5 Z"/></g>
<g><path style="opacity:1" fill="#3d72e1" d="M 197.5,83.5 C 196.167,83.5 194.833,83.5 193.5,83.5C 189.336,84.3315 188.669,86.3315 191.5,89.5C 190.667,91.881 191,94.2143 192.5,96.5C 194.137,95.5561 195.137,96.2227 195.5,98.5C 188.763,97.7199 182.096,97.5532 175.5,98C 180.492,93.3676 185.159,88.5343 189.5,83.5C 192.309,82.1997 194.976,82.1997 197.5,83.5 Z"/></g>
<g><path style="opacity:1" fill="#3c71e0" d="M 57.5,83.5 C 60.3654,82.2172 63.3654,82.2172 66.5,83.5C 70.2775,88.7804 74.6108,93.6138 79.5,98C 73.5355,97.3802 67.5355,97.5469 61.5,98.5C 62.209,97.596 63.209,97.2627 64.5,97.5C 64.472,95.4176 65.1387,93.5843 66.5,92C 65.5533,89.5215 65.5533,87.1882 66.5,85C 64.9751,83.9914 63.3084,83.4914 61.5,83.5C 60.1667,83.5 58.8333,83.5 57.5,83.5 Z"/></g>
<g><path style="opacity:1" fill="#a2a3a4" d="M 122.5,93.5 C 123.338,93.8417 123.672,94.5084 123.5,95.5C 122.662,95.1583 122.328,94.4916 122.5,93.5 Z"/></g>
<g><path style="opacity:1" fill="#a2a3a4" d="M 132.5,93.5 C 132.672,94.4916 132.338,95.1583 131.5,95.5C 131.328,94.5084 131.662,93.8417 132.5,93.5 Z"/></g>
<g><path style="opacity:1" fill="#3a6ddb" d="M 185.5,78.5 C 186.622,80.2884 186.789,82.2884 186,84.5C 182.136,89.1698 177.969,93.5031 173.5,97.5C 169.744,97.5333 166.411,98.5333 163.5,100.5C 163.64,98.8762 162.973,97.7096 161.5,97C 162.5,96 163.5,95 164.5,94C 164.167,93.8333 163.833,93.6667 163.5,93.5C 161.641,95.1924 159.641,96.6924 157.5,98C 163.755,99.9628 163.922,102.129 158,104.5C 155.17,102.19 153.003,99.5235 151.5,96.5C 153.063,90.3879 156.397,85.3879 161.5,81.5C 161.5,82.5 161.5,83.5 161.5,84.5C 163.903,84.607 165.736,83.607 167,81.5C 165.887,84.1808 164.387,86.8474 162.5,89.5C 163.333,89.8333 164.167,90.1667 165,90.5C 170.107,89.212 174.274,86.5453 177.5,82.5C 179.156,81.8535 180.823,81.1869 182.5,80.5C 184.935,82.2793 185.935,81.6127 185.5,78.5 Z"/></g>
<g><path style="opacity:1" fill="#a1a2a3" d="M 123.5,95.5 C 124.573,96.2506 124.74,97.2506 124,98.5C 123.517,97.552 123.351,96.552 123.5,95.5 Z"/></g>
<g><path style="opacity:1" fill="#a1a2a3" d="M 131.5,95.5 C 131.649,96.552 131.483,97.552 131,98.5C 130.26,97.2506 130.427,96.2506 131.5,95.5 Z"/></g>
<g><path style="opacity:1" fill="#1b212f" d="M 82.5,69.5 C 82.5,70.1667 82.8333,70.5 83.5,70.5C 82.9423,71.7899 81.9423,72.6232 80.5,73C 77.4715,73.539 74.4715,74.2057 71.5,75C 70.1772,75.8159 69.5106,76.9826 69.5,78.5C 69.0179,85.1559 72.0179,90.1559 78.5,93.5C 79.5,94.8333 80.5,96.1667 81.5,97.5C 85.7646,101.638 90.4313,105.305 95.5,108.5C 97.1815,110.008 99.1815,111.008 101.5,111.5C 107.299,114.568 112.966,117.901 118.5,121.5C 118.5,121.833 118.5,122.167 118.5,122.5C 113.79,119.594 108.79,117.261 103.5,115.5C 100.369,112.89 96.7019,111.223 92.5,110.5C 86.1296,113.427 79.463,115.427 72.5,116.5C 72.6107,115.883 72.944,115.383 73.5,115C 80.1969,112.978 86.8635,110.978 93.5,109C 91.8043,107.824 90.1376,106.657 88.5,105.5C 85.9128,103.041 82.9128,101.374 79.5,100.5C 72.4012,99.1901 65.4012,99.1901 58.5,100.5C 54.9153,100.152 51.582,100.819 48.5,102.5C 48.5,101.833 48.1667,101.5 47.5,101.5C 51.6161,98.8021 56.2828,97.8021 61.5,98.5C 67.5355,97.5469 73.5355,97.3802 79.5,98C 74.6108,93.6138 70.2775,88.7804 66.5,83.5C 63.3654,82.2172 60.3654,82.2172 57.5,83.5C 51.8219,84.0848 46.1553,84.7514 40.5,85.5C 39.5,84.8333 38.5,84.1667 37.5,83.5C 47.2319,82.6505 56.8986,81.3172 66.5,79.5C 67.2599,77.6396 68.2599,75.973 69.5,74.5C 70.7095,74.0679 71.7095,73.4013 72.5,72.5C 76.4331,73.1426 79.7664,72.1426 82.5,69.5 Z"/></g>
<g><path style="opacity:1" fill="#1b202f" d="M 172.5,69.5 C 175.581,72.1925 179.247,73.1925 183.5,72.5C 183.833,73.5 184.5,74.1667 185.5,74.5C 186.74,75.973 187.74,77.6396 188.5,79.5C 196.777,81.1572 205.11,82.4905 213.5,83.5C 215.333,83.4146 216.666,82.7479 217.5,81.5C 218.404,82.209 218.737,83.209 218.5,84.5C 216.901,84.2322 215.568,84.5655 214.5,85.5C 208.833,84.8333 203.167,84.1667 197.5,83.5C 194.976,82.1997 192.309,82.1997 189.5,83.5C 185.159,88.5343 180.492,93.3676 175.5,98C 182.096,97.5532 188.763,97.7199 195.5,98.5C 197.527,98.3379 199.527,98.5045 201.5,99C 205.53,100.618 209.53,102.118 213.5,103.5C 213.167,104.167 212.833,104.833 212.5,105.5C 207.38,102.016 201.713,100.349 195.5,100.5C 188.599,99.1901 181.599,99.1901 174.5,100.5C 172.566,101.11 170.899,102.11 169.5,103.5C 167.5,104.833 165.5,106.167 163.5,107.5C 163.5,107.167 163.5,106.833 163.5,106.5C 166.833,103.5 170.167,100.5 173.5,97.5C 177.969,93.5031 182.136,89.1698 186,84.5C 186.789,82.2884 186.622,80.2884 185.5,78.5C 185.489,76.9826 184.823,75.8159 183.5,75C 180.211,74.1184 176.877,73.4517 173.5,73C 172.619,72.2917 171.953,71.4584 171.5,70.5C 172.167,70.5 172.5,70.1667 172.5,69.5 Z"/></g>
<g><path style="opacity:1" fill="#3973db" d="M 93.5,81.5 C 98.6033,85.3879 101.937,90.3879 103.5,96.5C 103.66,98.1992 103.494,99.8659 103,101.5C 102.586,101.043 102.086,100.709 101.5,100.5C 99.6769,101.491 98.1769,102.824 97,104.5C 93.8793,102.36 90.7126,100.36 87.5,98.5C 85.604,97.5344 83.604,97.2011 81.5,97.5C 80.5,96.1667 79.5,94.8333 78.5,93.5C 80.5554,95.1926 83.5554,95.6926 87.5,95C 87.9574,94.586 88.2907,94.086 88.5,93.5C 87.2519,91.5414 85.5852,90.0414 83.5,89C 83.8333,88.8333 84.1667,88.6667 84.5,88.5C 87.1667,90.1667 89.8333,91.8333 92.5,93.5C 93.5827,92.635 93.7494,91.635 93,90.5C 91.204,87.073 89.0373,83.9063 86.5,81C 88.5497,82.4031 90.8831,83.5698 93.5,84.5C 93.5,83.5 93.5,82.5 93.5,81.5 Z"/></g>
<g><path style="opacity:1" fill="#9c9d9d" d="M 124.5,99.5 C 125.598,100.601 125.765,101.934 125,103.5C 124.51,102.207 124.343,100.873 124.5,99.5 Z"/></g>
<g><path style="opacity:1" fill="#9c9d9d" d="M 129.5,99.5 C 130.598,100.601 130.765,101.934 130,103.5C 129.51,102.207 129.343,100.873 129.5,99.5 Z"/></g>
<g><path style="opacity:1" fill="#3886df" d="M 58.5,100.5 C 65.4012,99.1901 72.4012,99.1901 79.5,100.5C 79.7135,102.144 79.3802,103.644 78.5,105C 80.6447,105.743 80.8114,106.576 79,107.5C 74.309,106.421 69.309,106.421 64,107.5C 63,109.167 62,110.833 61,112.5C 60.6667,111.833 60.3333,111.167 60,110.5C 58.3257,111.676 56.8257,113.01 55.5,114.5C 54.8333,113.833 54.1667,113.167 53.5,112.5C 51.6932,114.164 50.6932,115.831 50.5,117.5C 49.5539,117.013 48.5539,116.68 47.5,116.5C 45.4229,117.937 43.0895,118.604 40.5,118.5C 39.3054,118.134 38.6387,117.301 38.5,116C 39.4138,114.594 40.0805,113.094 40.5,111.5C 41.29,112.609 41.79,113.942 42,115.5C 43.6453,115.307 45.4787,115.14 47.5,115C 52.5,110.333 57.5,105.667 62.5,101C 61.2068,100.51 59.8734,100.343 58.5,100.5 Z"/></g>
<g><path style="opacity:1" fill="#3a8ed8" d="M 103.5,96.5 C 105.167,97.5 106.5,98.8333 107.5,100.5C 106.878,101.627 106.045,102.627 105,103.5C 101.691,102.324 100.191,103.657 100.5,107.5C 98.7085,107.366 97.0418,107.699 95.5,108.5C 90.4313,105.305 85.7646,101.638 81.5,97.5C 83.604,97.2011 85.604,97.5344 87.5,98.5C 90.7126,100.36 93.8793,102.36 97,104.5C 98.1769,102.824 99.6769,101.491 101.5,100.5C 102.086,100.709 102.586,101.043 103,101.5C 103.494,99.8659 103.66,98.1992 103.5,96.5 Z"/></g>
<g><path style="opacity:1" fill="#3b88d4" d="M 173.5,97.5 C 170.167,100.5 166.833,103.5 163.5,106.5C 161.938,106.733 160.605,107.4 159.5,108.5C 157.958,107.699 156.292,107.366 154.5,107.5C 154.382,104.75 153.049,102.75 150.5,101.5C 149.614,100.675 149.281,99.675 149.5,98.5C 149.833,97.5 150.5,96.8333 151.5,96.5C 153.003,99.5235 155.17,102.19 158,104.5C 163.922,102.129 163.755,99.9628 157.5,98C 159.641,96.6924 161.641,95.1924 163.5,93.5C 163.833,93.6667 164.167,93.8333 164.5,94C 163.5,95 162.5,96 161.5,97C 162.973,97.7096 163.64,98.8762 163.5,100.5C 166.411,98.5333 169.744,97.5333 173.5,97.5 Z"/></g>
<g><path style="opacity:1" fill="#396fe3" d="M 195.5,100.5 C 201.713,100.349 207.38,102.016 212.5,105.5C 212.427,107.027 213.094,108.027 214.5,108.5C 213.122,110.663 211.955,112.996 211,115.5C 210.751,114.376 210.251,113.376 209.5,112.5C 208.011,112.467 206.678,111.967 205.5,111C 206.167,110.667 206.833,110.333 207.5,110C 206.333,109.5 205.5,108.667 205,107.5C 200.161,108.166 195.995,106 192.5,101C 193.448,100.517 194.448,100.351 195.5,100.5 Z"/></g>
<g><path style="opacity:1" fill="#37a0d6" d="M 149.5,98.5 C 149.281,99.675 149.614,100.675 150.5,101.5C 153.049,102.75 154.382,104.75 154.5,107.5C 156.292,107.366 157.958,107.699 159.5,108.5C 158.71,109.401 157.71,110.068 156.5,110.5C 152.728,109.644 148.894,109.977 145,111.5C 143.736,109.84 143.236,108.173 143.5,106.5C 144.313,103.011 146.313,100.344 149.5,98.5 Z"/></g>
<g><path style="opacity:1" fill="#3970e2" d="M 58.5,100.5 C 59.8734,100.343 61.2068,100.51 62.5,101C 57.5,105.667 52.5,110.333 47.5,115C 45.4787,115.14 43.6453,115.307 42,115.5C 41.79,113.942 41.29,112.609 40.5,111.5C 39.9033,111.265 39.5699,110.765 39.5,110C 41.4469,106.218 44.4469,103.718 48.5,102.5C 51.582,100.819 54.9153,100.152 58.5,100.5 Z"/></g>
<g><path style="opacity:1" fill="#3794dc" d="M 79.5,100.5 C 82.9128,101.374 85.9128,103.041 88.5,105.5C 88.5386,106.756 88.0386,107.756 87,108.5C 85.6015,107.949 84.2682,107.616 83,107.5C 81.513,108.253 81.3463,109.086 82.5,110C 80.9255,110.336 79.5922,111.169 78.5,112.5C 76.4336,109.702 74.9336,110.035 74,113.5C 71.5838,112.965 69.0838,112.632 66.5,112.5C 64.2241,113.213 61.8907,113.713 59.5,114C 60.3402,115.666 59.8402,115.833 58,114.5C 56.6932,115.772 55.1932,116.772 53.5,117.5C 52.3595,118.425 52.3595,119.259 53.5,120C 52.552,120.483 51.552,120.649 50.5,120.5C 46.9601,120.247 43.6267,119.581 40.5,118.5C 43.0895,118.604 45.4229,117.937 47.5,116.5C 48.5539,116.68 49.5539,117.013 50.5,117.5C 50.6932,115.831 51.6932,114.164 53.5,112.5C 54.1667,113.167 54.8333,113.833 55.5,114.5C 56.8257,113.01 58.3257,111.676 60,110.5C 60.3333,111.167 60.6667,111.833 61,112.5C 62,110.833 63,109.167 64,107.5C 69.309,106.421 74.309,106.421 79,107.5C 80.8114,106.576 80.6447,105.743 78.5,105C 79.3802,103.644 79.7135,102.144 79.5,100.5 Z"/></g>
<g><path style="opacity:1" fill="#37a2d6" d="M 107.5,100.5 C 110.044,101.708 111.378,103.708 111.5,106.5C 111.764,108.173 111.264,109.84 110,111.5C 108.915,110.707 107.748,110.04 106.5,109.5C 105.158,111.005 103.492,111.672 101.5,111.5C 99.1815,111.008 97.1815,110.008 95.5,108.5C 97.0418,107.699 98.7085,107.366 100.5,107.5C 100.191,103.657 101.691,102.324 105,103.5C 106.045,102.627 106.878,101.627 107.5,100.5 Z"/></g>
<g><path style="opacity:1" fill="#7c7d7e" d="M 129.5,109.5 C 128.167,109.5 126.833,109.5 125.5,109.5C 125.329,106.203 125.995,105.869 127.5,108.5C 129.005,105.869 129.671,106.203 129.5,109.5 Z"/></g>
<g><path style="opacity:1" fill="#388edd" d="M 174.5,100.5 C 175.09,101.766 175.59,103.099 176,104.5C 176.493,101.015 177.993,100.515 180.5,103C 178.789,104.133 178.289,105.633 179,107.5C 179.667,104.833 180.333,104.833 181,107.5C 184.118,106.252 187.118,106.586 190,108.5C 191.242,107.128 192.742,106.128 194.5,105.5C 199.361,108.761 204.027,112.261 208.5,116C 209.833,116.667 211.167,116.667 212.5,116C 213.099,114.378 213.766,112.878 214.5,111.5C 217.547,118.146 215.213,120.812 207.5,119.5C 204.035,117.759 200.535,116.092 197,114.5C 192.081,116.502 190.914,115.502 193.5,111.5C 191.993,110.261 190.826,110.595 190,112.5C 189.517,111.552 189.351,110.552 189.5,109.5C 186.921,109.917 184.754,109.25 183,107.5C 182.261,108.574 181.261,109.241 180,109.5C 177.742,108.747 175.742,108.747 174,109.5C 172.956,108.377 172.29,107.044 172,105.5C 171.282,106.451 170.449,106.617 169.5,106C 170.598,105.23 170.598,104.397 169.5,103.5C 170.899,102.11 172.566,101.11 174.5,100.5 Z"/></g>
<g><path style="opacity:1" fill="#387ddf" d="M 195.5,100.5 C 194.448,100.351 193.448,100.517 192.5,101C 195.995,106 200.161,108.166 205,107.5C 205.5,108.667 206.333,109.5 207.5,110C 206.833,110.333 206.167,110.667 205.5,111C 206.678,111.967 208.011,112.467 209.5,112.5C 210.251,113.376 210.751,114.376 211,115.5C 211.955,112.996 213.122,110.663 214.5,108.5C 215.404,109.209 215.737,110.209 215.5,111.5C 215.167,111.5 214.833,111.5 214.5,111.5C 213.766,112.878 213.099,114.378 212.5,116C 211.167,116.667 209.833,116.667 208.5,116C 204.027,112.261 199.361,108.761 194.5,105.5C 192.742,106.128 191.242,107.128 190,108.5C 187.118,106.586 184.118,106.252 181,107.5C 180.333,104.833 179.667,104.833 179,107.5C 178.289,105.633 178.789,104.133 180.5,103C 177.993,100.515 176.493,101.015 176,104.5C 175.59,103.099 175.09,101.766 174.5,100.5C 181.599,99.1901 188.599,99.1901 195.5,100.5 Z"/></g>
<g><path style="opacity:1" fill="#3eafc9" d="M 111.5,106.5 C 115.406,110.657 119.073,114.99 122.5,119.5C 121.423,120.705 120.09,121.372 118.5,121.5C 112.966,117.901 107.299,114.568 101.5,111.5C 103.492,111.672 105.158,111.005 106.5,109.5C 107.748,110.04 108.915,110.707 110,111.5C 111.264,109.84 111.764,108.173 111.5,106.5 Z"/></g>
<g><path style="opacity:1" fill="#3d9dd3" d="M 88.5,105.5 C 90.1376,106.657 91.8043,107.824 93.5,109C 86.8635,110.978 80.1969,112.978 73.5,115C 72.944,115.383 72.6107,115.883 72.5,116.5C 67.5662,117.132 62.8995,118.632 58.5,121C 55.633,121.801 52.9664,121.634 50.5,120.5C 51.552,120.649 52.552,120.483 53.5,120C 52.3595,119.259 52.3595,118.425 53.5,117.5C 55.1932,116.772 56.6932,115.772 58,114.5C 59.8402,115.833 60.3402,115.666 59.5,114C 61.8907,113.713 64.2241,113.213 66.5,112.5C 69.0838,112.632 71.5838,112.965 74,113.5C 74.9336,110.035 76.4336,109.702 78.5,112.5C 79.5922,111.169 80.9255,110.336 82.5,110C 81.3463,109.086 81.513,108.253 83,107.5C 84.2682,107.616 85.6015,107.949 87,108.5C 88.0386,107.756 88.5386,106.756 88.5,105.5 Z"/></g>
<g><path style="opacity:1" fill="#3b9bd5" d="M 169.5,103.5 C 170.598,104.397 170.598,105.23 169.5,106C 170.449,106.617 171.282,106.451 172,105.5C 172.29,107.044 172.956,108.377 174,109.5C 175.742,108.747 177.742,108.747 180,109.5C 181.261,109.241 182.261,108.574 183,107.5C 184.754,109.25 186.921,109.917 189.5,109.5C 189.351,110.552 189.517,111.552 190,112.5C 190.826,110.595 191.993,110.261 193.5,111.5C 190.914,115.502 192.081,116.502 197,114.5C 200.535,116.092 204.035,117.759 207.5,119.5C 204.144,121.379 200.477,121.879 196.5,121C 185.031,116.399 173.364,112.399 161.5,109C 162.044,108.283 162.711,107.783 163.5,107.5C 165.5,106.167 167.5,104.833 169.5,103.5 Z"/></g>
<g><path style="opacity:1" fill="#3eb0ca" d="M 143.5,106.5 C 143.236,108.173 143.736,109.84 145,111.5C 148.894,109.977 152.728,109.644 156.5,110.5C 149.323,113.367 142.657,117.034 136.5,121.5C 134.91,121.372 133.577,120.705 132.5,119.5C 135.927,114.99 139.594,110.657 143.5,106.5 Z"/></g>
<g><path style="opacity:1" fill="#3cb8c9" d="M 103.5,115.5 C 108.79,117.261 113.79,119.594 118.5,122.5C 118.5,123.167 118.167,123.5 117.5,123.5C 110.796,123.338 104.296,124.338 98,126.5C 94.6501,125.025 91.1501,124.358 87.5,124.5C 89.6669,123.802 91.5002,122.469 93,120.5C 93.7175,121.451 94.5509,121.617 95.5,121C 97.2873,117.664 99.4539,116.831 102,118.5C 105.357,117.258 105.19,116.424 101.5,116C 102.094,115.536 102.761,115.369 103.5,115.5 Z"/></g>
<g><path style="opacity:1" fill="#3aacd1" d="M 103.5,115.5 C 102.761,115.369 102.094,115.536 101.5,116C 105.19,116.424 105.357,117.258 102,118.5C 99.4539,116.831 97.2873,117.664 95.5,121C 94.5509,121.617 93.7175,121.451 93,120.5C 91.5002,122.469 89.6669,123.802 87.5,124.5C 81.2706,125.987 74.9373,127.154 68.5,128C 61.3625,130.655 54.1959,133.155 47,135.5C 44.2214,134.231 42.388,132.231 41.5,129.5C 43.7268,131.375 46.2268,131.375 49,129.5C 50.6995,130.406 52.5328,130.739 54.5,130.5C 54.5,129.5 54.5,128.5 54.5,127.5C 57.9108,126.277 61.2442,124.777 64.5,123C 63.5842,122.722 62.9175,122.222 62.5,121.5C 65.9992,120.129 69.3326,118.462 72.5,116.5C 79.463,115.427 86.1296,113.427 92.5,110.5C 96.7019,111.223 100.369,112.89 103.5,115.5 Z"/></g>
<g><path style="opacity:1" fill="#3ab2ce" d="M 156.5,112.5 C 156.721,115.097 157.221,115.097 158,112.5C 159.113,113.711 160.28,113.711 161.5,112.5C 162.853,113.685 164.02,115.019 165,116.5C 166.46,114.578 168.127,113.911 170,114.5C 170.317,116.301 170.984,116.634 172,115.5C 174.096,116.715 173.929,117.549 171.5,118C 172.969,121.93 174.136,122.097 175,118.5C 177.354,120.848 180.021,121.514 183,120.5C 183.333,121.833 183.667,123.167 184,124.5C 184.333,124.167 184.667,123.833 185,123.5C 186.821,125.287 188.988,126.62 191.5,127.5C 193.003,126.948 194.669,126.948 196.5,127.5C 196.5,128.833 196.5,130.167 196.5,131.5C 186.282,128.108 175.782,125.775 165,124.5C 162.106,124.349 159.773,125.349 158,127.5C 156.103,125.984 153.936,125.317 151.5,125.5C 147.1,123.896 142.434,123.229 137.5,123.5C 135.776,123.539 135.443,123.206 136.5,122.5C 142.922,118.762 149.588,115.429 156.5,112.5 Z"/></g>
<g><path style="opacity:1" fill="#3ba6cf" d="M 202.5,122.5 C 200.958,123.163 199.291,123.83 197.5,124.5C 202.634,127.532 208.301,128.865 214.5,128.5C 213.377,134.129 210.044,136.296 204.5,135C 201.512,134.498 198.845,133.331 196.5,131.5C 196.5,130.167 196.5,128.833 196.5,127.5C 194.669,126.948 193.003,126.948 191.5,127.5C 188.988,126.62 186.821,125.287 185,123.5C 184.667,123.833 184.333,124.167 184,124.5C 183.667,123.167 183.333,121.833 183,120.5C 180.021,121.514 177.354,120.848 175,118.5C 174.136,122.097 172.969,121.93 171.5,118C 173.929,117.549 174.096,116.715 172,115.5C 170.984,116.634 170.317,116.301 170,114.5C 168.127,113.911 166.46,114.578 165,116.5C 164.02,115.019 162.853,113.685 161.5,112.5C 160.28,113.711 159.113,113.711 158,112.5C 157.221,115.097 156.721,115.097 156.5,112.5C 159.183,110.719 162.183,110.219 165.5,111C 177.316,116.55 189.649,120.383 202.5,122.5 Z"/></g>
<g><path style="opacity:1" fill="#3b97d3" d="M 214.5,128.5 C 208.301,128.865 202.634,127.532 197.5,124.5C 199.291,123.83 200.958,123.163 202.5,122.5C 206.5,121.833 210.5,121.167 214.5,120.5C 214.5,123.167 214.5,125.833 214.5,128.5 Z"/></g>
<g><path style="opacity:1" fill="#3a9ed2" d="M 62.5,121.5 C 62.9175,122.222 63.5842,122.722 64.5,123C 61.2442,124.777 57.9108,126.277 54.5,127.5C 54.5,128.5 54.5,129.5 54.5,130.5C 52.5328,130.739 50.6995,130.406 49,129.5C 46.2268,131.375 43.7268,131.375 41.5,129.5C 40.5489,128.081 40.2155,126.415 40.5,124.5C 41.2439,122.547 42.7439,121.547 45,121.5C 50.8494,122.806 56.6827,122.806 62.5,121.5 Z"/></g>
<g><path style="opacity:1" fill="#172522" d="M 137.5,123.5 C 142.434,123.229 147.1,123.896 151.5,125.5C 141.477,124.709 141.144,126.542 150.5,131C 151.833,131.667 151.833,132.333 150.5,133C 153.488,133.502 156.155,134.669 158.5,136.5C 160.27,137.764 161.937,139.264 163.5,141C 164.449,141.617 165.282,141.451 166,140.5C 166.995,141.066 167.828,141.733 168.5,142.5C 167.414,142.62 166.747,143.287 166.5,144.5C 167.575,149.889 170.242,154.222 174.5,157.5C 181.218,164.381 187.718,171.381 194,178.5C 194.483,177.552 194.649,176.552 194.5,175.5C 194.833,175.5 195.167,175.5 195.5,175.5C 195.843,177.483 195.176,178.817 193.5,179.5C 188.265,173.686 182.599,168.353 176.5,163.5C 175.92,161.251 174.587,159.585 172.5,158.5C 170.252,155.672 168.252,152.672 166.5,149.5C 166.005,147.518 165.505,145.518 165,143.5C 162.167,141.333 159.333,139.167 156.5,137C 148.04,134.517 139.874,131.351 132,127.5C 131.517,128.448 131.351,129.448 131.5,130.5C 130.167,128.5 130.167,126.5 131.5,124.5C 136.398,127.616 141.731,130.282 147.5,132.5C 148.167,132.333 148.833,132.167 149.5,132C 146.405,131.065 144.071,129.231 142.5,126.5C 140.928,125.313 139.261,124.313 137.5,123.5 Z"/></g>
<g><path style="opacity:1" fill="#4aa7a5" d="M 109.5,132.5 C 108.127,132.657 106.793,132.49 105.5,132C 108.362,131.07 110.695,129.403 112.5,127C 116.05,126.216 119.55,125.383 123,124.5C 123.167,124.833 123.333,125.167 123.5,125.5C 118.499,127.334 113.832,129.667 109.5,132.5 Z"/></g>
<g><path style="opacity:1" fill="#4eaca8" d="M 131.5,124.5 C 135.042,125.675 138.709,126.341 142.5,126.5C 144.071,129.231 146.405,131.065 149.5,132C 148.833,132.167 148.167,132.333 147.5,132.5C 141.731,130.282 136.398,127.616 131.5,124.5 Z"/></g>
<g><path style="opacity:1" fill="#232e30" d="M 39.5,123.5 C 39.5,124.167 39.8333,124.5 40.5,124.5C 40.2155,126.415 40.5489,128.081 41.5,129.5C 42.388,132.231 44.2214,134.231 47,135.5C 54.1959,133.155 61.3625,130.655 68.5,128C 74.9373,127.154 81.2706,125.987 87.5,124.5C 91.1501,124.358 94.6501,125.025 98,126.5C 104.296,124.338 110.796,123.338 117.5,123.5C 115.786,124.738 113.786,125.405 111.5,125.5C 105.708,124.986 100.374,126.319 95.5,129.5C 94.6143,128.675 94.281,127.675 94.5,126.5C 79.8111,126.95 65.8111,130.116 52.5,136C 55.7348,136.229 58.7348,136.396 61.5,136.5C 60.6618,136.842 60.3284,137.508 60.5,138.5C 58.127,140.579 56.7936,143.246 56.5,146.5C 55.8333,145.833 55.1667,145.167 54.5,144.5C 55.2371,142.695 56.2371,141.029 57.5,139.5C 56.9747,138.808 56.3081,138.308 55.5,138C 45.8511,139.829 40.1844,135.996 38.5,126.5C 38.5195,125.274 38.8529,124.274 39.5,123.5 Z"/></g>
<g><path style="opacity:1" fill="#3ebcc5" d="M 111.5,125.5 C 109.454,128.366 106.787,130.533 103.5,132C 103.833,132.333 104.167,132.667 104.5,133C 101.854,133.497 99.1873,133.664 96.5,133.5C 91.632,132.787 86.632,132.121 81.5,131.5C 76.1572,134.532 70.4906,136.532 64.5,137.5C 63.2739,137.48 62.2739,137.147 61.5,136.5C 58.7348,136.396 55.7348,136.229 52.5,136C 65.8111,130.116 79.8111,126.95 94.5,126.5C 94.281,127.675 94.6143,128.675 95.5,129.5C 100.374,126.319 105.708,124.986 111.5,125.5 Z"/></g>
<g><path style="opacity:1" fill="#3ebbc3" d="M 151.5,125.5 C 153.975,127.006 156.642,128.339 159.5,129.5C 160.386,128.675 160.719,127.675 160.5,126.5C 175.17,126.997 189.17,130.164 202.5,136C 199.265,136.229 196.265,136.396 193.5,136.5C 188.713,137.549 184.046,136.883 179.5,134.5C 172.844,133.286 166.177,133.286 159.5,134.5C 159.137,135.183 158.804,135.85 158.5,136.5C 156.155,134.669 153.488,133.502 150.5,133C 151.833,132.333 151.833,131.667 150.5,131C 141.144,126.542 141.477,124.709 151.5,125.5 Z"/></g>
<g><path style="opacity:1" fill="#1f282b" d="M 163.5,106.5 C 163.5,106.833 163.5,107.167 163.5,107.5C 162.711,107.783 162.044,108.283 161.5,109C 173.364,112.399 185.031,116.399 196.5,121C 200.477,121.879 204.144,121.379 207.5,119.5C 215.213,120.812 217.547,118.146 214.5,111.5C 214.833,111.5 215.167,111.5 215.5,111.5C 215.833,111.5 216.167,111.5 216.5,111.5C 216.877,113.258 217.544,114.925 218.5,116.5C 215.306,119.282 214.639,122.615 216.5,126.5C 214.603,136.369 208.603,140.369 198.5,138.5C 198.167,138.833 197.833,139.167 197.5,139.5C 198.763,141.029 199.763,142.695 200.5,144.5C 199.833,145.167 199.167,145.833 198.5,146.5C 197.68,142.698 196.014,139.364 193.5,136.5C 196.265,136.396 199.265,136.229 202.5,136C 189.17,130.164 175.17,126.997 160.5,126.5C 160.719,127.675 160.386,128.675 159.5,129.5C 156.642,128.339 153.975,127.006 151.5,125.5C 153.936,125.317 156.103,125.984 158,127.5C 159.773,125.349 162.106,124.349 165,124.5C 175.782,125.775 186.282,128.108 196.5,131.5C 198.845,133.331 201.512,134.498 204.5,135C 210.044,136.296 213.377,134.129 214.5,128.5C 214.5,125.833 214.5,123.167 214.5,120.5C 210.5,121.167 206.5,121.833 202.5,122.5C 189.649,120.383 177.316,116.55 165.5,111C 162.183,110.219 159.183,110.719 156.5,112.5C 149.588,115.429 142.922,118.762 136.5,122.5C 136.5,122.167 136.5,121.833 136.5,121.5C 142.657,117.034 149.323,113.367 156.5,110.5C 157.71,110.068 158.71,109.401 159.5,108.5C 160.605,107.4 161.938,106.733 163.5,106.5 Z"/></g>
<g><path style="opacity:1" fill="#3fbeb0" d="M 122.5,132.5 C 120.246,133.415 118.246,134.748 116.5,136.5C 115.399,135.402 114.066,135.235 112.5,136C 109.527,137.765 107.36,140.265 106,143.5C 106.305,141.557 106.305,139.557 106,137.5C 105.333,138.833 104.667,138.833 104,137.5C 102.333,139.5 100.667,141.5 99,143.5C 98.8849,141.893 99.3849,140.393 100.5,139C 100.056,137.238 99.5556,137.405 99,139.5C 98.6174,138.944 98.1174,138.611 97.5,138.5C 101.003,135.552 105.003,133.552 109.5,132.5C 114.396,130.554 119.396,128.887 124.5,127.5C 124.608,129.514 123.942,131.18 122.5,132.5 Z"/></g>
<g><path style="opacity:1" fill="#397d7d" d="M 96.5,133.5 C 84.0682,130.737 73.7348,134.071 65.5,143.5C 65.1667,143.333 64.8333,143.167 64.5,143C 65.8333,141.667 67.1667,140.333 68.5,139C 65.854,138.503 63.1873,138.336 60.5,138.5C 60.3284,137.508 60.6618,136.842 61.5,136.5C 62.2739,137.147 63.2739,137.48 64.5,137.5C 70.4906,136.532 76.1572,134.532 81.5,131.5C 86.632,132.121 91.632,132.787 96.5,133.5 Z"/></g>
<g><path style="opacity:1" fill="#3ec5b2" d="M 166.5,149.5 C 164.567,147.942 162.567,147.442 160.5,148C 157.397,145.193 154.23,141.693 151,137.5C 150.08,137.93 149.247,138.264 148.5,138.5C 149.687,139.519 150.687,140.686 151.5,142C 151.167,142.333 150.833,142.667 150.5,143C 151.765,144.337 152.265,145.837 152,147.5C 150,144.833 148,142.167 146,139.5C 144.933,140.191 143.766,140.691 142.5,141C 145.767,141.895 146.434,143.728 144.5,146.5C 142.774,144.058 141.274,141.391 140,138.5C 137.894,135.882 135.394,133.882 132.5,132.5C 132.167,131.833 131.833,131.167 131.5,130.5C 131.351,129.448 131.517,128.448 132,127.5C 139.874,131.351 148.04,134.517 156.5,137C 159.333,139.167 162.167,141.333 165,143.5C 165.505,145.518 166.005,147.518 166.5,149.5 Z"/></g>
<g><path style="opacity:1" fill="#3ed0b0" d="M 130.5,133.5 C 136.235,135.57 139.902,139.57 141.5,145.5C 139.088,145.694 138.088,147.027 138.5,149.5C 137.609,147.709 136.609,145.876 135.5,144C 133.899,143.727 132.399,143.227 131,142.5C 130.502,139.518 130.335,136.518 130.5,133.5 Z"/></g>
<g><path style="opacity:1" fill="#3dc9b9" d="M 179.5,134.5 C 184.737,140.122 190.737,144.789 197.5,148.5C 198.044,152.1 199.044,155.6 200.5,159C 200.37,160.059 199.87,160.892 199,161.5C 194.167,157.333 189.333,153.167 184.5,149C 179.459,145.975 174.126,143.808 168.5,142.5C 167.828,141.733 166.995,141.066 166,140.5C 165.282,141.451 164.449,141.617 163.5,141C 161.937,139.264 160.27,137.764 158.5,136.5C 158.804,135.85 159.137,135.183 159.5,134.5C 166.177,133.286 172.844,133.286 179.5,134.5 Z"/></g>
<g><path style="opacity:1" fill="#3daaa5" d="M 179.5,134.5 C 184.046,136.883 188.713,137.549 193.5,136.5C 196.014,139.364 197.68,142.698 198.5,146.5C 198.167,147.167 197.833,147.833 197.5,148.5C 190.737,144.789 184.737,140.122 179.5,134.5 Z"/></g>
<g><path style="opacity:1" fill="#3cd3b0" d="M 116.5,136.5 C 113.679,141.473 110.845,146.473 108,151.5C 105.337,153.334 102.837,155.334 100.5,157.5C 100.815,155.774 100.981,154.107 101,152.5C 100.085,153.328 99.4186,154.328 99,155.5C 98.7508,154.376 98.2508,153.376 97.5,152.5C 95.1056,154.068 92.6056,155.401 90,156.5C 89.6667,156.167 89.3333,155.833 89,155.5C 88.5439,156.744 89.0439,157.577 90.5,158C 89.552,158.483 88.552,158.649 87.5,158.5C 87.719,159.675 87.3857,160.675 86.5,161.5C 86.7948,160.174 86.2948,158.841 85,157.5C 83.5421,160.129 81.3755,161.795 78.5,162.5C 84.3827,157.4 88.216,151.067 90,143.5C 92.3818,141.611 94.8818,139.945 97.5,138.5C 98.1174,138.611 98.6174,138.944 99,139.5C 99.5556,137.405 100.056,137.238 100.5,139C 99.3849,140.393 98.8849,141.893 99,143.5C 100.667,141.5 102.333,139.5 104,137.5C 104.667,138.833 105.333,138.833 106,137.5C 106.305,139.557 106.305,141.557 106,143.5C 107.36,140.265 109.527,137.765 112.5,136C 114.066,135.235 115.399,135.402 116.5,136.5 Z"/></g>
<g><path style="opacity:1" fill="#3dc4ba" d="M 96.5,133.5 C 96.9175,134.222 97.5842,134.722 98.5,135C 95.9804,136.763 93.6471,138.763 91.5,141C 84.9036,141.811 78.5702,143.978 72.5,147.5C 73.2341,146.292 73.5674,144.959 73.5,143.5C 70.9354,144.642 68.2687,145.642 65.5,146.5C 62.5717,145.212 60.0717,145.879 58,148.5C 57.79,150.058 57.29,151.391 56.5,152.5C 56.5,150.5 56.5,148.5 56.5,146.5C 56.7936,143.246 58.127,140.579 60.5,138.5C 63.1873,138.336 65.854,138.503 68.5,139C 67.1667,140.333 65.8333,141.667 64.5,143C 64.8333,143.167 65.1667,143.333 65.5,143.5C 73.7348,134.071 84.0682,130.737 96.5,133.5 Z"/></g>
<g><path style="opacity:1" fill="#151817" d="M 168.5,142.5 C 174.126,143.808 179.459,145.975 184.5,149C 189.333,153.167 194.167,157.333 199,161.5C 199.87,160.892 200.37,160.059 200.5,159C 199.044,155.6 198.044,152.1 197.5,148.5C 197.833,147.833 198.167,147.167 198.5,146.5C 199.167,145.833 199.833,145.167 200.5,144.5C 201.223,147.822 202.057,151.155 203,154.5C 206.314,157.38 206.814,160.547 204.5,164C 204.911,165.144 205.244,166.311 205.5,167.5C 204.359,170.755 203.526,174.089 203,177.5C 202,178.167 201,178.833 200,179.5C 198.463,186.22 196.129,192.553 193,198.5C 192.252,200.751 190.752,202.084 188.5,202.5C 188.167,201.833 187.833,201.167 187.5,200.5C 189.73,198.465 190.063,196.132 188.5,193.5C 190.256,192.448 190.923,190.781 190.5,188.5C 191.29,187.206 192.29,186.039 193.5,185C 188.276,180.53 183.276,175.863 178.5,171C 179.908,170.685 181.241,171.018 182.5,172C 185.833,175.667 189.167,179.333 192.5,183C 193.332,183.688 193.998,183.521 194.5,182.5C 193.873,181.583 193.539,180.583 193.5,179.5C 195.176,178.817 195.843,177.483 195.5,175.5C 198.424,171.716 199.257,167.383 198,162.5C 193.167,158.333 188.333,154.167 183.5,150C 178.408,147.454 173.408,144.954 168.5,142.5 Z"/></g>
<g><path style="opacity:1" fill="#3bd8af" d="M 166.5,149.5 C 168.252,152.672 170.252,155.672 172.5,158.5C 170.13,158.264 168.13,157.264 166.5,155.5C 165.289,156.39 163.955,156.39 162.5,155.5C 161.353,155.818 160.519,156.484 160,157.5C 157.815,156.072 155.815,154.405 154,152.5C 154.019,154.107 154.185,155.774 154.5,157.5C 149.775,155.108 146.442,151.441 144.5,146.5C 146.434,143.728 145.767,141.895 142.5,141C 143.766,140.691 144.933,140.191 146,139.5C 148,142.167 150,144.833 152,147.5C 152.265,145.837 151.765,144.337 150.5,143C 150.833,142.667 151.167,142.333 151.5,142C 150.687,140.686 149.687,139.519 148.5,138.5C 149.247,138.264 150.08,137.93 151,137.5C 154.23,141.693 157.397,145.193 160.5,148C 162.567,147.442 164.567,147.942 166.5,149.5 Z"/></g>
<g><path style="opacity:1" fill="#40d4a9" d="M 124.5,133.5 C 124.5,136.833 124.5,140.167 124.5,143.5C 122.533,143.261 120.699,143.594 119,144.5C 116.749,149.488 114.916,154.488 113.5,159.5C 113.286,157.856 113.62,156.356 114.5,155C 112.899,154.727 111.399,154.227 110,153.5C 109.583,154.756 108.75,155.423 107.5,155.5C 110.575,150.352 113.409,145.019 116,139.5C 118.177,136.477 121.011,134.477 124.5,133.5 Z"/></g>
<g><path style="opacity:1" fill="#3ecdb1" d="M 72.5,147.5 C 66.8976,151.927 61.3976,156.593 56,161.5C 55.1301,160.892 54.6301,160.059 54.5,159C 55.2741,156.846 55.9408,154.679 56.5,152.5C 57.29,151.391 57.79,150.058 58,148.5C 60.0717,145.879 62.5717,145.212 65.5,146.5C 68.2687,145.642 70.9354,144.642 73.5,143.5C 73.5674,144.959 73.2341,146.292 72.5,147.5 Z"/></g>
<g><path style="opacity:1" fill="#3ed4a7" d="M 168.5,142.5 C 173.408,144.954 178.408,147.454 183.5,150C 188.333,154.167 193.167,158.333 198,162.5C 199.257,167.383 198.424,171.716 195.5,175.5C 195.167,175.5 194.833,175.5 194.5,175.5C 192.945,172.791 192.278,170.125 192.5,167.5C 193.837,168.315 194.837,169.482 195.5,171C 196.167,171.667 196.833,171.667 197.5,171C 193.555,164.828 188.555,160.661 182.5,158.5C 181.698,157.048 181.198,155.382 181,153.5C 178.834,154.776 176.834,154.443 175,152.5C 174.5,152.667 174,152.833 173.5,153C 175.548,154.226 175.881,155.726 174.5,157.5C 170.242,154.222 167.575,149.889 166.5,144.5C 166.747,143.287 167.414,142.62 168.5,142.5 Z"/></g>
<g><path style="opacity:1" fill="#3ed7a8" d="M 71.5,166.5 C 71.9118,164.027 70.9118,162.694 68.5,162.5C 69.4787,160.855 70.812,159.521 72.5,158.5C 66.3994,160.716 61.3994,164.882 57.5,171C 58.5768,171.47 59.5768,171.303 60.5,170.5C 60.5674,171.959 60.2341,173.292 59.5,174.5C 58.5416,174.047 57.7083,173.381 57,172.5C 56.3333,169.167 56.3333,165.833 57,162.5C 61.8333,158.333 66.6667,154.167 71.5,150C 76.7128,147.227 82.0461,144.727 87.5,142.5C 88.2271,146.907 87.0604,150.907 84,154.5C 79.9644,158.704 75.7978,162.704 71.5,166.5 Z"/></g>
<g><path style="opacity:1" fill="#3cde9f" d="M 182.5,158.5 C 185.833,161.5 189.167,164.5 192.5,167.5C 192.278,170.125 192.945,172.791 194.5,175.5C 194.649,176.552 194.483,177.552 194,178.5C 187.718,171.381 181.218,164.381 174.5,157.5C 175.881,155.726 175.548,154.226 173.5,153C 174,152.833 174.5,152.667 175,152.5C 176.834,154.443 178.834,154.776 181,153.5C 181.198,155.382 181.698,157.048 182.5,158.5 Z"/></g>
<g><path style="opacity:1" fill="#3ae0a4" d="M 172.5,158.5 C 174.587,159.585 175.92,161.251 176.5,163.5C 175.778,163.918 175.278,164.584 175,165.5C 174.228,164.151 173.061,163.318 171.5,163C 172.28,161.927 172.113,160.76 171,159.5C 170.311,160.357 169.478,161.023 168.5,161.5C 165.799,159.841 164.132,160.508 163.5,163.5C 159.603,162.727 156.603,160.727 154.5,157.5C 154.185,155.774 154.019,154.107 154,152.5C 155.815,154.405 157.815,156.072 160,157.5C 160.519,156.484 161.353,155.818 162.5,155.5C 163.955,156.39 165.289,156.39 166.5,155.5C 168.13,157.264 170.13,158.264 172.5,158.5 Z"/></g>
<g><path style="opacity:1" fill="#182822" d="M 68.5,162.5 C 64.8333,164.167 62.1667,166.833 60.5,170.5C 59.5768,171.303 58.5768,171.47 57.5,171C 61.3994,164.882 66.3994,160.716 72.5,158.5C 70.812,159.521 69.4787,160.855 68.5,162.5 Z"/></g>
<g><path style="opacity:1" fill="#1a281f" d="M 122.5,132.5 C 123.492,132.328 124.158,132.662 124.5,133.5C 121.011,134.477 118.177,136.477 116,139.5C 113.409,145.019 110.575,150.352 107.5,155.5C 106.119,159.737 105.119,164.07 104.5,168.5C 103.166,175.504 101.833,182.504 100.5,189.5C 96.7733,197.681 93.44,206.014 90.5,214.5C 89.2905,214.068 88.2905,213.401 87.5,212.5C 92.4345,205.96 95.7678,198.626 97.5,190.5C 98.2216,190.082 98.7216,189.416 99,188.5C 100.319,182.894 101.153,177.227 101.5,171.5C 103.264,166.343 104.43,161.01 105,155.5C 97.3368,162.629 92.1701,171.295 89.5,181.5C 88.5,184.167 87.5,186.833 86.5,189.5C 82.1606,194.296 78.8273,199.796 76.5,206C 77.0593,208.188 78.3927,208.854 80.5,208C 82.2908,204.249 84.4574,200.749 87,197.5C 87.6667,198.5 87.6667,199.5 87,200.5C 84.8646,202.602 83.3646,205.102 82.5,208C 83.1173,210.227 84.4506,211.727 86.5,212.5C 86.5,214.167 86.5,215.833 86.5,217.5C 85.5655,216.432 85.2322,215.099 85.5,213.5C 82.6874,213.77 80.0208,214.27 77.5,215C 75.407,212.218 74.2403,209.051 74,205.5C 71.6922,204.009 69.1922,203.009 66.5,202.5C 66.8333,201.833 67.1667,201.167 67.5,200.5C 68.1174,200.611 68.6174,200.944 69,201.5C 71.5345,197.734 74.0345,194.067 76.5,190.5C 76.8333,190.5 77.1667,190.5 77.5,190.5C 75.7392,194.104 73.7392,197.604 71.5,201C 72.2125,202.442 73.3791,203.275 75,203.5C 78.0953,198.973 80.9287,194.306 83.5,189.5C 84.6444,187.9 85.8111,186.233 87,184.5C 88.9398,177.953 91.4398,171.619 94.5,165.5C 94.1667,165.167 93.8333,164.833 93.5,164.5C 89.0064,167.914 84.3397,171.081 79.5,174C 76.8823,176.106 74.8823,178.606 73.5,181.5C 71.1715,185.463 68.8382,189.463 66.5,193.5C 64.744,192.448 64.0773,190.781 64.5,188.5C 65.2679,189.263 65.7679,190.263 66,191.5C 67.8581,186.479 70.3581,181.812 73.5,177.5C 82.4386,170.553 91.4386,163.887 100.5,157.5C 102.837,155.334 105.337,153.334 108,151.5C 110.845,146.473 113.679,141.473 116.5,136.5C 118.246,134.748 120.246,133.415 122.5,132.5 Z"/></g>
<g><path style="opacity:1" fill="#3de199" d="M 113.5,159.5 C 111.689,165.346 110.355,171.346 109.5,177.5C 109.664,174.813 109.497,172.146 109,169.5C 107.644,168.62 106.144,168.286 104.5,168.5C 105.119,164.07 106.119,159.737 107.5,155.5C 108.75,155.423 109.583,154.756 110,153.5C 111.399,154.227 112.899,154.727 114.5,155C 113.62,156.356 113.286,157.856 113.5,159.5 Z"/></g>
<g><path style="opacity:1" fill="#172821" d="M 192.5,167.5 C 189.167,164.5 185.833,161.5 182.5,158.5C 188.555,160.661 193.555,164.828 197.5,171C 196.833,171.667 196.167,171.667 195.5,171C 194.837,169.482 193.837,168.315 192.5,167.5 Z"/></g>
<g><path style="opacity:1" fill="#3fdf97" d="M 100.5,157.5 C 91.4386,163.887 82.4386,170.553 73.5,177.5C 73.9258,175.861 73.9258,174.528 73.5,173.5C 77.6351,170.56 77.3018,170.06 72.5,172C 68.9434,176.292 65.2768,180.459 61.5,184.5C 60.3789,182.911 60.5456,181.244 62,179.5C 67.0651,173.331 72.5651,167.665 78.5,162.5C 81.3755,161.795 83.5421,160.129 85,157.5C 86.2948,158.841 86.7948,160.174 86.5,161.5C 87.3857,160.675 87.719,159.675 87.5,158.5C 88.552,158.649 89.552,158.483 90.5,158C 89.0439,157.577 88.5439,156.744 89,155.5C 89.3333,155.833 89.6667,156.167 90,156.5C 92.6056,155.401 95.1056,154.068 97.5,152.5C 98.2508,153.376 98.7508,154.376 99,155.5C 99.4186,154.328 100.085,153.328 101,152.5C 100.981,154.107 100.815,155.774 100.5,157.5 Z"/></g>
<g><path style="opacity:1" fill="#41e08f" d="M 176.5,163.5 C 182.599,168.353 188.265,173.686 193.5,179.5C 193.539,180.583 193.873,181.583 194.5,182.5C 193.998,183.521 193.332,183.688 192.5,183C 189.167,179.333 185.833,175.667 182.5,172C 181.241,171.018 179.908,170.685 178.5,171C 183.276,175.863 188.276,180.53 193.5,185C 192.29,186.039 191.29,187.206 190.5,188.5C 189.732,189.263 189.232,190.263 189,191.5C 187.384,187.325 185.384,183.325 183,179.5C 176.892,173.546 170.392,168.213 163.5,163.5C 164.132,160.508 165.799,159.841 168.5,161.5C 169.478,161.023 170.311,160.357 171,159.5C 172.113,160.76 172.28,161.927 171.5,163C 173.061,163.318 174.228,164.151 175,165.5C 175.278,164.584 175.778,163.918 176.5,163.5 Z"/></g>
<g><path style="opacity:1" fill="#3de196" d="M 68.5,162.5 C 70.9118,162.694 71.9118,164.027 71.5,166.5C 68.5235,170.975 65.0235,174.975 61,178.5C 60.5899,177.099 60.0899,175.766 59.5,174.5C 60.2341,173.292 60.5674,171.959 60.5,170.5C 62.1667,166.833 64.8333,164.167 68.5,162.5 Z"/></g>
<g><path style="opacity:1" fill="#3fe19a" d="M 141.5,145.5 C 146.842,152.515 149.842,160.515 150.5,169.5C 148.99,168.272 147.49,168.272 146,169.5C 145.503,172.146 145.336,174.813 145.5,177.5C 143.814,168.183 141.481,158.849 138.5,149.5C 138.088,147.027 139.088,145.694 141.5,145.5 Z"/></g>
<g><path style="opacity:1" fill="#1a2a20" d="M 130.5,133.5 C 130.842,132.662 131.508,132.328 132.5,132.5C 135.394,133.882 137.894,135.882 140,138.5C 141.274,141.391 142.774,144.058 144.5,146.5C 146.442,151.441 149.775,155.108 154.5,157.5C 156.603,160.727 159.603,162.727 163.5,163.5C 170.392,168.213 176.892,173.546 183,179.5C 185.384,183.325 187.384,187.325 189,191.5C 189.232,190.263 189.732,189.263 190.5,188.5C 190.923,190.781 190.256,192.448 188.5,193.5C 186.17,190.173 184.337,186.507 183,182.5C 181.951,180.382 180.451,178.716 178.5,177.5C 173.78,172.629 168.446,168.462 162.5,165C 161.668,164.312 161.002,164.479 160.5,165.5C 163.893,172.283 166.726,179.283 169,186.5C 169.852,187.571 170.685,188.571 171.5,189.5C 174.083,194.334 176.916,199.001 180,203.5C 181.621,203.275 182.788,202.442 183.5,201C 181.261,197.604 179.261,194.104 177.5,190.5C 177.833,190.5 178.167,190.5 178.5,190.5C 181.107,193.968 183.607,197.634 186,201.5C 186.383,200.944 186.883,200.611 187.5,200.5C 187.833,201.167 188.167,201.833 188.5,202.5C 185.808,203.009 183.308,204.009 181,205.5C 180.76,209.051 179.593,212.218 177.5,215C 174.979,214.27 172.313,213.77 169.5,213.5C 169.768,215.099 169.434,216.432 168.5,217.5C 168.5,215.833 168.5,214.167 168.5,212.5C 170.549,211.727 171.883,210.227 172.5,208C 171.635,205.102 170.135,202.602 168,200.5C 167.333,199.5 167.333,198.5 168,197.5C 170.543,200.749 172.709,204.249 174.5,208C 176.607,208.854 177.941,208.188 178.5,206C 174.291,197.748 169.958,189.581 165.5,181.5C 162.83,171.295 157.663,162.629 150,155.5C 150.57,161.01 151.736,166.343 153.5,171.5C 154.604,186.481 159.271,200.148 167.5,212.5C 166.71,213.401 165.71,214.068 164.5,214.5C 159.933,203.367 155.933,192.034 152.5,180.5C 152.309,176.738 151.642,173.071 150.5,169.5C 149.842,160.515 146.842,152.515 141.5,145.5C 139.902,139.57 136.235,135.57 130.5,133.5 Z"/></g>
<g><path style="opacity:1" fill="#3fe68b" d="M 101.5,171.5 C 100.178,171.67 99.0113,171.337 98,170.5C 97.6667,172.167 97.3333,173.833 97,175.5C 96.5488,173.071 95.7155,172.904 94.5,175C 94.9574,175.414 95.2907,175.914 95.5,176.5C 93.1634,177.843 91.1634,179.51 89.5,181.5C 92.1701,171.295 97.3368,162.629 105,155.5C 104.43,161.01 103.264,166.343 101.5,171.5 Z"/></g>
<g><path style="opacity:1" fill="#3fe68c" d="M 165.5,181.5 C 163.837,179.51 161.837,177.843 159.5,176.5C 159.709,175.914 160.043,175.414 160.5,175C 158.68,174.021 157.513,172.521 157,170.5C 155.989,171.337 154.822,171.67 153.5,171.5C 151.736,166.343 150.57,161.01 150,155.5C 157.663,162.629 162.83,171.295 165.5,181.5 Z"/></g>
<g><path style="opacity:1" fill="#3fe988" d="M 178.5,177.5 C 175.618,177.014 172.952,177.014 170.5,177.5C 169.637,176.537 168.97,176.537 168.5,177.5C 169.925,180.688 171.592,183.688 173.5,186.5C 171.952,186.821 171.285,187.821 171.5,189.5C 170.685,188.571 169.852,187.571 169,186.5C 166.726,179.283 163.893,172.283 160.5,165.5C 161.002,164.479 161.668,164.312 162.5,165C 168.446,168.462 173.78,172.629 178.5,177.5 Z"/></g>
<g><path style="opacity:1" fill="#40ec82" d="M 150.5,169.5 C 151.642,173.071 152.309,176.738 152.5,180.5C 151.027,179.26 149.36,178.26 147.5,177.5C 147.167,177.833 146.833,178.167 146.5,178.5C 147.493,183.11 148.16,187.777 148.5,192.5C 146.369,187.848 145.369,182.848 145.5,177.5C 145.336,174.813 145.503,172.146 146,169.5C 147.49,168.272 148.99,168.272 150.5,169.5 Z"/></g>
<g><path style="opacity:1" fill="#3c9e5e" d="M 170.5,177.5 C 172.414,182.335 175.081,186.669 178.5,190.5C 178.167,190.5 177.833,190.5 177.5,190.5C 176.5,188.833 175.167,187.5 173.5,186.5C 171.592,183.688 169.925,180.688 168.5,177.5C 168.97,176.537 169.637,176.537 170.5,177.5 Z"/></g>
<g><path style="opacity:1" fill="#3fe482" d="M 83.5,189.5 C 83.5,188.5 83.5,187.5 83.5,186.5C 80.7079,186.622 78.7079,187.956 77.5,190.5C 77.1667,190.5 76.8333,190.5 76.5,190.5C 77.3733,188.114 78.8733,186.114 81,184.5C 81.4828,183.552 81.6495,182.552 81.5,181.5C 78.4675,182.785 75.8008,182.785 73.5,181.5C 74.8823,178.606 76.8823,176.106 79.5,174C 84.3397,171.081 89.0064,167.914 93.5,164.5C 93.8333,164.833 94.1667,165.167 94.5,165.5C 91.4398,171.619 88.9398,177.953 87,184.5C 85.8111,186.233 84.6444,187.9 83.5,189.5 Z"/></g>
<g><path style="opacity:1" fill="#15241b" d="M 73.5,173.5 C 70.1314,177.869 66.1314,181.536 61.5,184.5C 65.2768,180.459 68.9434,176.292 72.5,172C 77.3018,170.06 77.6351,170.56 73.5,173.5 Z"/></g>
<g><path style="opacity:1" fill="#42e77f" d="M 73.5,173.5 C 73.9258,174.528 73.9258,175.861 73.5,177.5C 70.3581,181.812 67.8581,186.479 66,191.5C 65.7679,190.263 65.2679,189.263 64.5,188.5C 63.5,187.167 62.5,185.833 61.5,184.5C 66.1314,181.536 70.1314,177.869 73.5,173.5 Z"/></g>
<g><path style="opacity:1" fill="#3ef177" d="M 178.5,177.5 C 180.451,178.716 181.951,180.382 183,182.5C 184.337,186.507 186.17,190.173 188.5,193.5C 190.063,196.132 189.73,198.465 187.5,200.5C 186.883,200.611 186.383,200.944 186,201.5C 183.607,197.634 181.107,193.968 178.5,190.5C 175.081,186.669 172.414,182.335 170.5,177.5C 172.952,177.014 175.618,177.014 178.5,177.5 Z"/></g>
<g><path style="opacity:1" fill="#3cf475" d="M 101.5,171.5 C 101.153,177.227 100.319,182.894 99,188.5C 98.7216,189.416 98.2216,190.082 97.5,190.5C 96.1889,187.867 94.6889,187.867 93,190.5C 90.8557,188.925 88.689,188.592 86.5,189.5C 87.5,186.833 88.5,184.167 89.5,181.5C 91.1634,179.51 93.1634,177.843 95.5,176.5C 95.2907,175.914 94.9574,175.414 94.5,175C 95.7155,172.904 96.5488,173.071 97,175.5C 97.3333,173.833 97.6667,172.167 98,170.5C 99.0113,171.337 100.178,171.67 101.5,171.5 Z"/></g>
<g><path style="opacity:1" fill="#3df37a" d="M 104.5,168.5 C 106.144,168.286 107.644,168.62 109,169.5C 109.497,172.146 109.664,174.813 109.5,177.5C 109.515,181.56 109.015,185.56 108,189.5C 107.8,191.32 106.966,192.653 105.5,193.5C 105.724,188.663 104.058,187.33 100.5,189.5C 101.833,182.504 103.166,175.504 104.5,168.5 Z"/></g>
<g><path style="opacity:1" fill="#41f06a" d="M 83.5,189.5 C 80.9287,194.306 78.0953,198.973 75,203.5C 73.3791,203.275 72.2125,202.442 71.5,201C 73.7392,197.604 75.7392,194.104 77.5,190.5C 78.7079,187.956 80.7079,186.622 83.5,186.5C 83.5,187.5 83.5,188.5 83.5,189.5 Z"/></g>
<g><path style="opacity:1" fill="#3ef569" d="M 165.5,181.5 C 169.958,189.581 174.291,197.748 178.5,206C 177.941,208.188 176.607,208.854 174.5,208C 172.709,204.249 170.543,200.749 168,197.5C 167.333,198.5 167.333,199.5 168,200.5C 170.135,202.602 171.635,205.102 172.5,208C 171.883,210.227 170.549,211.727 168.5,212.5C 168.167,212.5 167.833,212.5 167.5,212.5C 159.271,200.148 154.604,186.481 153.5,171.5C 154.822,171.67 155.989,171.337 157,170.5C 157.513,172.521 158.68,174.021 160.5,175C 160.043,175.414 159.709,175.914 159.5,176.5C 161.837,177.843 163.837,179.51 165.5,181.5 Z"/></g>
<g><path style="opacity:1" fill="#3df863" d="M 97.5,190.5 C 95.7678,198.626 92.4345,205.96 87.5,212.5C 87.1667,212.5 86.8333,212.5 86.5,212.5C 84.4506,211.727 83.1173,210.227 82.5,208C 83.3646,205.102 84.8646,202.602 87,200.5C 87.6667,199.5 87.6667,198.5 87,197.5C 84.4574,200.749 82.2908,204.249 80.5,208C 78.3927,208.854 77.0593,208.188 76.5,206C 78.8273,199.796 82.1606,194.296 86.5,189.5C 88.689,188.592 90.8557,188.925 93,190.5C 94.6889,187.867 96.1889,187.867 97.5,190.5 Z"/></g>
<g><path style="opacity:1" fill="#3fef6f" d="M 76.5,190.5 C 74.0345,194.067 71.5345,197.734 69,201.5C 68.6174,200.944 68.1174,200.611 67.5,200.5C 65.2699,198.465 64.9365,196.132 66.5,193.5C 68.8382,189.463 71.1715,185.463 73.5,181.5C 75.8008,182.785 78.4675,182.785 81.5,181.5C 81.6495,182.552 81.4828,183.552 81,184.5C 78.8733,186.114 77.3733,188.114 76.5,190.5 Z"/></g>
<g><path style="opacity:1" fill="#41f269" d="M 173.5,186.5 C 175.167,187.5 176.5,188.833 177.5,190.5C 179.261,194.104 181.261,197.604 183.5,201C 182.788,202.442 181.621,203.275 180,203.5C 176.916,199.001 174.083,194.334 171.5,189.5C 171.285,187.821 171.952,186.821 173.5,186.5 Z"/></g>
<g><path style="opacity:1" fill="#41f364" d="M 105.5,193.5 C 105.66,195.199 105.494,196.866 105,198.5C 102.806,201.554 101.139,204.888 100,208.5C 96.6854,210.324 93.5187,212.324 90.5,214.5C 93.44,206.014 96.7733,197.681 100.5,189.5C 104.058,187.33 105.724,188.663 105.5,193.5 Z"/></g>
<g><path style="opacity:1" fill="#3ff568" d="M 152.5,180.5 C 155.933,192.034 159.933,203.367 164.5,214.5C 161.481,212.324 158.315,210.324 155,208.5C 152.509,203.2 150.342,197.867 148.5,192.5C 148.16,187.777 147.493,183.11 146.5,178.5C 146.833,178.167 147.167,177.833 147.5,177.5C 149.36,178.26 151.027,179.26 152.5,180.5 Z"/></g>
</svg>
