<svg xmlns="http://www.w3.org/2000/svg" viewBox="0 -2048 2048 2048">
	<path fill="#000000" d="M158 -1028Q192 -1028 233 -1003Q260 -987 276 -933Q277 -923 277 -916Q277 -868 242 -830Q202 -798 163 -798Q118 -798 83 -834Q52 -872 52 -919Q52 -956 86 -999Q116 -1028 158 -1028ZM697 -1013H699Q742 -1010 764 -1010H784Q806 -1010 806 -1005V-1004Q795 -710 792 -685Q782 -415 782 -394Q780 -394 778 -357Q779 -313 826 -305Q848 -305 866 -281Q872 -273 872 -263V-251L856 -57Q853 -31 844 -21Q830 -5 807 -5V-4Q778 -5 764 -5L78 -2Q61 -2 36 -14Q16 -25 15 -111Q11 -155 7 -217Q4 -217 3 -255Q2 -281 30 -298Q41 -302 79 -309Q104 -322 104 -344Q95 -601 83 -601Q76 -617 50 -628Q6 -630 6 -637Q4 -646 4 -656V-720Q4 -725 58 -734Q171 -758 256 -758Q276 -759 276 -753V-752Q276 -725 278 -675L281 -672Q325 -724 348 -736Q378 -757 422 -767Q463 -774 484 -774Q545 -774 598 -739H606L607 -745V-814Q607 -853 582 -864Q572 -870 521 -876L519 -879Q520 -945 520 -970Q520 -977 538 -977Q626 -984 641 -994Q645 -994 674 -1007Q692 -1013 697 -1013ZM273 -657Q260 -644 239 -588Q220 -533 221 -477Q221 -438 231 -392Q253 -307 304 -256Q342 -223 352 -222Q358 -223 358 -225Q358 -229 357 -229Q358 -240 358 -246V-269Q358 -285 347 -285Q304 -285 284 -322L282 -341L283 -357Q277 -444 276 -653Q275 -657 273 -657ZM403 -468Q403 -421 424 -364Q447 -311 473 -303Q482 -297 501 -297Q546 -297 595 -343Q601 -359 601 -379V-494Q601 -537 603 -602Q603 -612 569 -635Q542 -656 518 -656Q502 -656 475 -643Q450 -623 430 -585Q403 -531 403 -468ZM409 -143V-97Q409 -54 430 -50Q439 -40 500 -36Q569 -41 576 -51Q597 -61 597 -84V-95Q597 -97 594 -99L527 -98Q525 -98 518 -95V-80Q518 -61 503 -61H500Q490 -64 490 -73Q488 -96 488 -117Q488 -166 496 -166Q499 -166 505 -167Q520 -167 520 -147Q519 -132 519 -130Q521 -124 527 -124H594Q597 -124 598 -135V-143Q598 -163 593 -171Q569 -192 503 -191H495Q431 -191 411 -162Q409 -153 409 -143ZM49 -182Q49 -157 57 -157H58Q64 -157 81 -159Q98 -159 98 -152Q104 -100 104 -50Q104 -39 115 -39H181Q184 -39 184 -42L183 -57L179 -156Q183 -159 192 -159H218Q227 -159 227 -167V-179Q227 -188 218 -188L54 -187Q53 -187 49 -182ZM246 -179L248 -173Q248 -172 246 -172Q248 -164 248 -159Q248 -40 256 -40H380Q386 -40 388 -45V-63Q388 -65 382 -69H340Q329 -69 329 -78Q328 -87 328 -96Q329 -102 332 -102H374Q376 -102 378 -106V-114Q378 -118 379 -124Q379 -130 363 -130H332Q328 -130 328 -139V-155Q330 -160 338 -160H375Q381 -160 382 -163V-176Q382 -179 383 -181Q381 -186 376 -189L251 -188Q248 -188 246 -179ZM629 -179V-147Q629 -146 628 -146Q628 -145 629 -145L628 -133Q627 -76 627 -43L631 -41H700Q702 -41 704 -46Q705 -104 712 -104H725Q731 -104 733 -98Q730 -69 730 -44Q733 -42 737 -42H800Q809 -42 809 -50Q809 -68 817 -183Q814 -190 812 -190H744Q735 -190 735 -181V-159Q735 -136 727 -136H712Q710 -136 709 -142Q710 -161 710 -171V-182L708 -190H636Q629 -185 629 -179Z"/>
</svg>