<svg xmlns="http://www.w3.org/2000/svg" viewBox="0 -2048 2048 2048">
	<path fill="#000000" d="M535 -1024H569Q577 -1024 583 -1020Q589 -1024 596 -1024H607Q743 -1011 851 -941Q997 -849 1057 -677Q1067 -629 1085 -629Q1095 -563 1095 -426V-357Q1095 -337 1012 -230Q961 -165 923 -151Q774 -13 579 -13Q526 -13 418 -34Q328 -40 328 -48H277Q56 -48 15 -199Q12 -222 12 -237Q12 -310 81 -440V-443L74 -467V-532Q74 -560 81 -594L77 -601Q115 -765 215 -869Q336 -981 459 -1010Q529 -1017 535 -1024ZM194 -715V-711H198Q198 -714 208 -732H215Q215 -723 280 -704Q280 -699 301 -694Q297 -687 297 -684Q358 -735 373 -735H387Q392 -735 400 -721V-701L397 -694Q411 -694 411 -677Q411 -641 394 -639V-635Q425 -624 425 -598Q428 -598 428 -594V-591L421 -580Q421 -573 425 -567L421 -560Q425 -553 425 -550L411 -543L414 -536L394 -501V-457Q376 -441 376 -405V-340Q404 -295 404 -281H394Q395 -275 400 -275Q529 -286 730 -415V-419H724Q724 -412 717 -412Q717 -421 686 -443Q686 -460 696 -460V-464Q665 -464 665 -477V-484Q697 -525 700 -525H696L675 -512V-515L686 -529H682Q675 -529 675 -519Q669 -519 669 -525H672L669 -532Q669 -539 679 -539V-546Q651 -546 651 -598Q657 -601 669 -601V-608L662 -618Q682 -618 689 -639H696V-660H713Q731 -680 761 -684Q776 -701 837 -715Q875 -734 944 -742Q947 -735 947 -732H950V-742Q806 -955 590 -955H565Q362 -955 222 -766Q200 -731 194 -715ZM22 -233Q22 -89 225 -61H277Q572 -61 892 -347Q892 -351 926 -381H930V-195H933Q1081 -343 1081 -350Q1081 -517 1074 -622Q874 -625 806 -625Q754 -563 679 -481V-477H768Q786 -477 827 -474V-467Q538 -257 352 -257H335Q205 -257 180 -371V-405Q180 -519 383 -697Q387 -703 387 -711V-718Q387 -725 380 -725Q344 -725 139 -498Q22 -344 22 -233Z"/>
</svg>