<svg xmlns="http://www.w3.org/2000/svg" viewBox="0 -2048 2048 2048">
	<path fill="#000000" d="M903 -1023H918Q941 -1023 970 -918Q1000 -906 1000 -866V-858Q997 -843 963 -829Q948 -836 941 -836L911 -784Q918 -769 918 -761L896 -746Q888 -759 888 -784H881Q881 -767 873 -754Q791 -787 791 -836L776 -829H761V-836Q761 -937 903 -1023ZM545 -993Q567 -965 567 -941V-903H545Q545 -818 575 -791V-784H560L530 -814L537 -776V-769H493Q454 -769 425 -791H418V-776H411Q396 -776 366 -896L373 -926Q366 -939 366 -955Q394 -978 433 -978L485 -970Q490 -993 545 -993ZM523 -858V-829H530V-858ZM157 -858Q172 -855 187 -821Q179 -808 179 -791Q183 -791 254 -746Q239 -739 231 -739Q217 -746 209 -746L239 -717Q182 -657 142 -657L149 -642Q135 -634 127 -634Q36 -670 0 -754V-761Q127 -846 127 -858ZM896 -821Q896 -813 888 -799V-791H896Q896 -799 903 -814V-821ZM1276 -799H1284V-776L1276 -761H1284L1306 -776Q1344 -727 1344 -709Q1336 -709 1336 -702Q1351 -699 1351 -687L1344 -672Q1366 -672 1366 -657Q1275 -567 1224 -567Q1217 -567 1217 -575L1179 -567H1150Q1135 -567 1135 -582V-620Q1135 -638 1150 -687Q1135 -687 1135 -702V-732Q1135 -743 1164 -761H1202V-746Q1241 -746 1276 -799ZM1239 -732H1247Q1261 -732 1261 -746H1254Q1239 -744 1239 -732ZM896 -702H926Q941 -699 941 -687H896ZM627 -694H761Q948 -674 948 -627H955Q955 -649 970 -649H993Q1003 -649 1052 -575Q1067 -582 1075 -582Q1105 -571 1105 -560Q1090 -552 1082 -552Q1082 -546 1127 -508Q1127 -493 1112 -493Q1112 -504 1082 -523H1075Q1127 -459 1127 -440H1112Q982 -575 903 -575H896V-567Q921 -567 926 -508H933Q933 -515 941 -515Q950 -479 970 -455V-448L963 -433Q978 -431 978 -418Q978 -377 948 -336Q955 -321 955 -314Q948 -299 948 -291H933L918 -299V-276H933Q933 -237 851 -187Q843 -187 843 -194Q769 -177 739 -149L649 -164H642V-157Q727 -134 836 -134L888 -142V-127L873 -105H888L955 -112V-97H941V-90Q957 -90 970 -82Q963 -69 963 -52H948L955 -67Q851 -42 851 -22Q866 -20 866 -7L851 0H791V-15H836V-30Q773 -15 672 -15Q553 -15 321 -172Q259 -202 239 -261Q145 -261 127 -433V-463Q222 -642 321 -642Q497 -694 627 -694ZM463 -575L470 -560V-552H433Q269 -524 269 -448V-440Q269 -346 455 -202Q533 -179 552 -179Q555 -194 567 -194Q582 -187 590 -187Q582 -201 582 -209H545Q493 -244 493 -284L515 -299H523V-291L508 -269Q538 -254 552 -254Q517 -322 478 -343Q488 -396 508 -396L500 -448V-463Q500 -473 552 -500Q587 -545 649 -545V-537L679 -560Q732 -528 732 -523Q724 -523 724 -515Q829 -448 829 -411H821L791 -433V-418Q804 -373 821 -373V-358Q810 -358 776 -336L784 -299H761V-314L769 -328H761Q732 -289 657 -284L649 -299Q657 -299 657 -306Q639 -306 620 -343Q620 -351 627 -351L620 -388Q627 -433 642 -433H649L642 -418V-403Q671 -448 679 -448Q702 -418 724 -418V-396H717L687 -418H679Q649 -406 649 -366L657 -351L672 -358H687Q702 -356 702 -343L657 -336V-328H679Q745 -328 754 -433Q707 -468 694 -470L664 -463Q651 -470 634 -470Q634 -460 612 -448L597 -455Q597 -433 582 -433V-455H575V-440Q582 -426 582 -418Q567 -416 567 -403V-351Q598 -312 612 -269L694 -239L709 -246H724V-231H739L732 -246Q762 -261 776 -261V-254Q849 -254 873 -411V-433Q873 -500 784 -575L791 -590H784L746 -582Q742 -605 687 -605Q645 -605 463 -575ZM500 -373V-358Q502 -343 515 -343H523Q523 -351 530 -366ZM769 -373Q769 -365 761 -351V-343H769Q769 -351 776 -366V-373ZM1217 -351H1224Q1247 -351 1269 -246H1261Q1241 -246 1209 -328Q1217 -343 1217 -351ZM1142 -343L1150 -328Q1102 -281 955 -164H933Q1112 -343 1142 -343ZM1112 -216L1120 -202Q1015 -134 985 -134L978 -149ZM381 -90H396Q455 -70 455 -60Q448 -60 448 -52Q384 -70 381 -90Z"/>
</svg>