<svg xmlns="http://www.w3.org/2000/svg" viewBox="0 -2048 2048 2048">
	<path fill="#000000" d="M483 -1027Q781 -939 829 -920Q877 -899 927 -850Q1003 -763 1003 -654V-629Q1003 -487 915 -440Q884 -427 851 -427Q778 -427 732 -459Q727 -466 727 -471V-748Q727 -775 705 -789H702V-20Q702 -3 677 0H672Q478 -55 460 -66Q452 -78 452 -86V-1002Q452 -1027 483 -1027ZM427 -465L428 -462V-352Q416 -345 297 -305Q189 -269 189 -224Q189 -188 265 -180Q312 -180 427 -225L428 -222V-133Q428 -127 334 -102Q257 -83 197 -83H178Q46 -83 7 -185Q1 -216 1 -233Q1 -317 159 -369Q423 -465 427 -465ZM940 -404Q1098 -404 1217 -336Q1253 -306 1253 -275V-264Q1253 -203 1129 -161Q1100 -149 729 -17L727 -20V-130Q727 -135 805 -160Q1019 -235 1059 -257Q1079 -273 1079 -288V-290Q1079 -326 1020 -335H998Q929 -335 735 -260L729 -258L727 -261V-371Q727 -376 815 -393Q884 -404 940 -404Z"/>
</svg>