<svg xmlns="http://www.w3.org/2000/svg" viewBox="0 -2048 2048 2048">
	<path fill="#000000" d="M58 -892H501L568 -885Q608 -892 621 -892H624Q658 -892 658 -836H654Q605 -836 591 -795Q591 -784 553 -776Q542 -790 538 -829Q518 -840 504 -840Q451 -832 429 -832H197Q163 -832 100 -836Q62 -825 62 -795V-330Q62 -304 96 -289Q165 -293 197 -293H429Q449 -293 508 -285Q542 -285 549 -341L557 -345H568Q591 -345 617 -300Q654 -286 654 -263V-251Q646 -233 621 -233L561 -240Q518 -233 501 -233H58Q10 -233 10 -296Q6 -305 6 -364V-761Q6 -885 32 -885Q32 -891 58 -892ZM1276 -892H1854Q1861 -891 1861 -885V-840Q1861 -832 1854 -832H1393Q1355 -832 1303 -836Q1274 -836 1254 -806V-802Q1261 -739 1261 -731V-619Q1267 -603 1295 -589Q1364 -593 1396 -593H1737Q1861 -588 1861 -578V-248Q1861 -237 1737 -233H1291Q1276 -233 1250 -229Q1209 -239 1209 -251V-274Q1209 -285 1246 -296L1291 -293H1670Q1707 -293 1760 -289Q1805 -303 1805 -319V-506Q1799 -525 1764 -536Q1702 -533 1670 -533H1276Q1205 -533 1205 -589Q1201 -625 1201 -660Q1201 -696 1209 -739Q1209 -767 1145 -780V-784Q1145 -823 1201 -851Q1216 -889 1246 -889Q1250 -892 1276 -892ZM666 -836Q726 -836 726 -787Q782 -759 782 -746Q782 -719 834 -701Q847 -652 875 -652Q889 -644 909 -593H950Q959 -593 977 -645Q1025 -660 1025 -697Q1077 -717 1089 -757Q1094 -772 1123 -772H1130Q1138 -771 1138 -765V-757Q1138 -717 1089 -701Q1089 -667 1044 -649Q1029 -649 1014 -604Q962 -587 962 -566Q962 -533 928 -533Q905 -533 894 -585Q838 -599 838 -634Q831 -646 785 -667Q785 -706 737 -720Q728 -720 714 -761Q662 -778 662 -832Q666 -832 666 -836ZM538 -769L542 -761V-746Q542 -719 489 -701Q476 -649 437 -649Q411 -596 388 -596Q368 -596 362 -581V-544Q362 -537 418 -514Q418 -482 478 -458Q478 -419 531 -405Q542 -391 542 -379V-364Q542 -356 531 -356Q489 -356 467 -405Q418 -422 418 -458Q358 -480 358 -521Q302 -539 302 -566Q302 -585 355 -600Q367 -656 403 -656Q416 -664 433 -705Q464 -705 493 -761Q519 -769 538 -769Z"/>
</svg>