<svg xmlns="http://www.w3.org/2000/svg" viewBox="0 -2048 2048 2048">
	<path fill="#000000" d="M323 -719Q460 -570 509 -509Q606 -611 613 -614Q775 -450 799 -416V-240Q799 -235 793 -235H96Q90 -235 90 -240V-466Q90 -477 200 -590Q306 -706 323 -719ZM683 -652Q655 -652 635 -670Q615 -688 615 -713Q615 -739 635 -757Q655 -775 683 -775Q711 -775 731 -757Q751 -739 751 -713Q751 -688 731 -670Q711 -652 683 -652ZM788 -193Q832 -193 845 -168Q852 -155 852 -147L851 -146Q813 -144 807 -144Q802 -164 787 -164H782Q767 -162 767 -154V-151Q767 -142 803 -136Q857 -123 857 -86Q857 -50 816 -36Q802 -33 792 -33H784Q739 -33 725 -58Q718 -71 716 -86Q716 -88 762 -89Q762 -71 782 -64Q786 -63 789 -63Q810 -65 810 -80Q810 -95 770 -101Q722 -114 722 -148V-149Q722 -177 758 -190Q772 -193 788 -193ZM390 -191H458Q511 -191 525 -152Q532 -136 532 -114V-110Q532 -59 495 -42Q479 -36 460 -36H390Q389 -36 389 -37V-189Q389 -191 390 -191ZM558 -191H624Q675 -191 689 -160Q699 -141 699 -118V-107Q699 -58 661 -41Q644 -36 628 -36H558Q557 -36 557 -37V-189Q557 -191 558 -191ZM437 -155V-71Q440 -71 441 -71Q472 -71 476 -79Q484 -88 484 -113Q484 -149 463 -154Q456 -155 451 -155ZM605 -155V-71H608Q641 -71 644 -80Q652 -88 652 -113Q652 -144 637 -151Q630 -155 619 -155ZM28 -971H94Q135 -971 145 -958Q157 -946 157 -927Q157 -893 121 -884H120L134 -876Q143 -867 167 -820Q167 -819 169 -815Q170 -815 196 -888Q198 -892 228 -970L229 -971H280Q281 -971 308 -899Q338 -820 339 -814H290Q288 -814 281 -840H227Q226 -839 219 -814H116Q112 -818 84 -870Q78 -878 64 -878V-815Q64 -814 63 -814H28Q27 -814 27 -815V-970Q27 -971 28 -971ZM342 -971H385Q388 -971 391 -945Q393 -938 403 -885H404Q427 -971 428 -971H472Q474 -971 482 -939Q497 -887 497 -884H498Q512 -962 514 -970L515 -971H551Q552 -971 552 -970V-938Q552 -932 525 -814H479Q476 -817 451 -910H450Q425 -820 423 -814H376Q375 -814 366 -859Q365 -859 341 -970ZM64 -939V-907H81Q108 -907 108 -922V-926Q108 -939 87 -939ZM253 -929Q253 -927 237 -874H271Q269 -881 254 -929Z"/>
</svg>