<svg xmlns="http://www.w3.org/2000/svg" viewBox="0 -2048 2048 2048">
	<path fill="#000000" d="M406 -760Q424 -760 440 -623Q443 -618 477 -426H481Q506 -671 518 -671H537Q551 -671 578 -539H582Q592 -614 616 -614Q638 -614 661 -524H665Q672 -581 691 -581H695Q714 -581 728 -504L751 -518H875Q880 -518 886 -510V-498Q880 -486 860 -486H762Q762 -477 725 -450H710Q695 -453 695 -483H691Q686 -441 672 -441H657Q646 -441 620 -524H616Q601 -435 586 -435H571Q555 -435 537 -542H533Q505 -274 492 -274H473Q456 -274 436 -438L395 -650H391Q323 -387 312 -387Q308 -387 301 -384Q275 -384 275 -471Q267 -471 267 -530Q261 -530 241 -450L230 -444H218Q200 -444 192 -530H185Q185 -486 143 -486H31Q9 -486 1 -504Q8 -517 16 -518H143Q170 -641 192 -641H196Q217 -641 226 -560H230Q246 -671 271 -671Q301 -671 301 -557Q306 -557 308 -504H312Q378 -760 391 -760ZM28 -971H94Q135 -971 145 -958Q157 -946 157 -927Q157 -893 121 -884H120L134 -876Q143 -867 167 -820Q167 -819 169 -815Q170 -815 196 -888Q198 -892 228 -970L229 -971H280Q281 -971 308 -899Q338 -820 339 -814H290Q288 -814 281 -840H227Q226 -839 219 -814H116Q112 -818 84 -870Q78 -878 64 -878V-815Q64 -814 63 -814H28Q27 -814 27 -815V-970Q27 -971 28 -971ZM342 -971H385Q388 -971 391 -945Q393 -938 403 -885H404Q427 -971 428 -971H472Q474 -971 482 -939Q497 -887 497 -884H498Q512 -962 514 -970L515 -971H551Q552 -971 552 -970V-938Q552 -932 525 -814H479Q476 -817 451 -910H450Q425 -820 423 -814H376Q375 -814 366 -859Q365 -859 341 -970ZM64 -939V-907H81Q108 -907 108 -922V-926Q108 -939 87 -939ZM253 -929Q253 -927 237 -874H271Q269 -881 254 -929ZM309 -237H346Q349 -237 352 -214Q353 -208 365 -145H366Q366 -147 391 -237H439Q442 -237 450 -203Q458 -176 466 -144H467Q468 -154 484 -237H532H534L496 -69H446Q444 -69 435 -106Q419 -162 417 -173H415Q390 -79 386 -69H336Q335 -69 324 -117Q308 -191 308 -194V-236Q308 -237 309 -237ZM598 -237H653Q654 -237 684 -154Q704 -105 716 -70V-69H663Q661 -69 653 -96H596Q595 -96 586 -69H535Q534 -69 534 -70L596 -237ZM705 -237H757Q758 -237 777 -178L795 -118Q797 -118 819 -194Q833 -237 834 -237H871Q872 -237 872 -236V-200Q826 -74 823 -69H768Q765 -72 738 -147Q733 -158 704 -237ZM624 -192Q624 -191 606 -133H643Q637 -150 625 -192Z"/>
</svg>