<svg xmlns="http://www.w3.org/2000/svg" viewBox="0 -2048 2048 2048">
	<path fill="#000000" d="M259 -1139H262Q389 -1139 514 -1013Q577 -1002 631 -963Q581 -920 581 -913Q597 -841 597 -774V-734Q597 -676 591 -644H584L587 -674V-684H584Q571 -621 557 -621Q554 -623 554 -651H551Q551 -633 534 -624Q534 -631 528 -631L518 -618Q574 -565 574 -482Q574 -423 538 -372Q544 -371 544 -365Q557 -372 581 -372H587Q592 -372 621 -332Q667 -289 667 -246Q667 -182 567 -153H554Q536 -153 445 -180H425Q388 -180 388 -153V-146L401 -126L398 -120Q372 -130 372 -160V-166Q372 -186 385 -206Q373 -206 265 -180Q186 -190 186 -229V-243Q186 -267 225 -296Q222 -302 222 -309Q229 -309 229 -319Q229 -326 189 -346V-352H179Q174 -352 116 -322H113Q40 -347 40 -375V-405H46V-369Q46 -356 116 -329Q165 -362 202 -362Q203 -369 209 -369V-365Q209 -356 196 -356V-352Q197 -344 225 -336L219 -365Q222 -365 222 -369H215Q239 -417 239 -429H229V-435Q259 -435 269 -455Q269 -462 262 -462L206 -452V-442L209 -435H206Q199 -435 199 -442Q185 -435 179 -435L176 -442Q162 -435 156 -435Q141 -447 136 -485Q132 -485 132 -488V-492Q141 -515 159 -515Q180 -495 206 -495Q262 -495 289 -541L298 -551Q319 -522 342 -522Q401 -525 401 -548V-551L368 -581Q362 -581 362 -568H355V-571Q362 -582 362 -591V-608H335V-614H352Q412 -614 474 -668Q508 -741 508 -761V-764H504Q504 -751 494 -751H491L494 -767V-804L491 -837H488Q488 -830 478 -777Q488 -760 488 -744V-734Q488 -727 481 -727H478V-754H474Q466 -711 435 -711L418 -714V-721L431 -717H445V-721Q427 -721 418 -731L411 -727V-751Q411 -754 418 -777V-784H415Q404 -753 391 -747H385Q375 -777 372 -814L375 -827V-834H372L368 -804H362V-824Q338 -794 338 -771H332Q328 -781 328 -810H325V-800H318Q318 -824 332 -863V-867H328Q305 -818 305 -804H298Q298 -822 308 -847L298 -854H295L265 -800V-794Q298 -794 308 -774V-747Q302 -711 275 -711H262Q244 -711 239 -724H245V-731L229 -727Q215 -734 215 -744Q215 -773 259 -797Q262 -834 272 -857H262Q238 -817 222 -774H219Q212 -787 212 -794H209V-787H202Q206 -818 219 -857Q192 -844 192 -764Q198 -664 215 -664Q209 -651 199 -651Q158 -654 156 -654Q137 -654 116 -561H109V-565L113 -571H109Q97 -571 83 -551V-545Q89 -537 89 -531Q84 -470 49 -412H43L73 -475L83 -535Q78 -535 73 -548Q73 -558 106 -581Q119 -581 126 -634Q109 -634 109 -651H106Q106 -638 99 -638H63Q54 -638 53 -651Q73 -758 83 -837Q34 -837 3 -857Q16 -881 93 -943Q93 -1009 172 -1086Q230 -1134 259 -1139ZM176 -1003H169Q182 -1062 229 -1112H225Q157 -1044 149 -963Q280 -1016 375 -1016V-1010H372Q285 -1010 139 -950Q119 -925 119 -910V-903Q316 -980 468 -980H478Q531 -980 604 -970H607V-973Q570 -990 498 -1013Q391 -1119 328 -1119Q328 -1122 295 -1129H292V-1126Q324 -1126 381 -1053V-1049Q319 -1118 269 -1129Q269 -1132 265 -1132H262Q181 -1048 176 -1003ZM315 -877Q315 -870 302 -857L308 -854H312L318 -873V-877ZM441 -860Q441 -820 425 -777Q437 -787 448 -787H458L445 -860ZM292 -780L289 -774Q290 -767 295 -767H302V-777Q298 -777 292 -780ZM461 -767L471 -761L474 -767Q474 -774 468 -774Q461 -773 461 -767ZM262 -721V-717H282V-721ZM338 -678H362Q381 -675 381 -668L365 -671H338ZM229 -671H239Q245 -670 245 -664H229ZM245 -664H249Q254 -664 262 -651V-648Q258 -648 245 -664ZM518 -658Q518 -651 501 -631L514 -624L521 -654V-658ZM229 -654H239Q245 -653 245 -648Q219 -648 219 -624V-595Q235 -592 235 -585L225 -578Q216 -578 212 -611V-628Q212 -646 229 -654ZM245 -648H252Q264 -648 269 -598V-591H262V-608Q262 -629 245 -648ZM159 -644H172Q177 -644 189 -628V-621Q176 -638 162 -638H159Q146 -633 146 -611Q149 -582 149 -578Q139 -578 139 -614Q139 -633 159 -644ZM265 -644Q270 -644 275 -634V-628Q268 -628 265 -644ZM405 -581Q439 -570 448 -548Q494 -537 494 -531V-525Q494 -520 461 -498Q461 -418 332 -312Q286 -297 222 -286Q192 -263 192 -236V-233Q201 -189 252 -189H272Q368 -189 511 -342Q534 -331 534 -306V-296Q521 -281 521 -279H531V-276Q520 -276 518 -256Q491 -236 478 -236V-233Q528 -219 544 -219Q567 -219 587 -243V-249Q587 -252 567 -269H577Q597 -256 597 -246Q580 -213 544 -213L451 -229Q378 -217 378 -166V-156H381Q381 -189 441 -189Q532 -160 561 -160Q623 -160 657 -229V-256Q657 -295 594 -342Q594 -332 587 -332Q572 -339 571 -346V-349H574L587 -339Q587 -349 591 -349Q597 -346 601 -346Q596 -359 584 -365H567Q551 -365 551 -356H538Q538 -365 531 -365Q531 -361 521 -356V-359Q567 -419 567 -485Q567 -559 514 -614Q496 -631 465 -631H461Q405 -618 405 -581ZM279 -624Q302 -618 318 -618V-611Q310 -611 308 -598Q328 -585 328 -581H322L315 -585Q315 -565 302 -558V-565Q308 -576 308 -585V-588Q308 -590 279 -618ZM372 -611V-605Q372 -601 395 -588Q398 -588 418 -621H415Q385 -611 372 -611ZM368 -595V-585Q375 -585 408 -551H411Q411 -557 418 -568ZM179 -588H182Q196 -583 196 -578Q196 -571 189 -571Q184 -571 179 -581ZM113 -548Q118 -548 126 -535H123Q118 -535 113 -545ZM378 -522V-518H381Q408 -522 408 -528Q383 -522 378 -522ZM365 -488Q368 -482 368 -478Q375 -478 375 -485V-488ZM209 -435H222V-429H215Q209 -429 209 -435ZM182 -429H189V-419H182ZM518 -352V-349Q518 -342 511 -342V-346Q512 -352 518 -352ZM544 -279H548Q567 -276 567 -269H564L544 -272Z"/>
</svg>