<svg xmlns="http://www.w3.org/2000/svg" viewBox="0 -2048 2048 2048">
	<path fill="#000000" d="M225 -1023H586Q935 -985 935 -748V-649Q935 -514 748 -349Q848 -92 848 -50Q828 0 761 0H649Q499 0 424 -287L387 -312Q321 -12 274 -12Q254 0 212 0H137Q39 0 0 -75V-87Q145 -998 187 -998H200L212 -935Q62 -184 62 -112V-100Q66 -75 87 -75H262Q309 -399 337 -399H412Q459 -399 574 -87L599 -75H723L786 -62L798 -87L674 -424V-437Q836 -437 886 -761Q886 -998 599 -998H200Q203 -1023 225 -1023ZM1085 -1023H1459Q1736 -1023 1821 -761Q1821 -748 1833 -748Q2005 -1010 2183 -1010V-985Q1905 -985 1833 -474V-374Q1867 -75 2133 -75H2332Q2544 -75 2544 -287Q2582 -479 2607 -524V-586H2619Q2657 -574 2657 -511Q2614 0 2420 0H2195Q1906 0 1796 -225Q1767 -449 1746 -449Q1647 -287 1260 -287Q1227 0 1110 0H998Q873 -25 873 -87Q960 -628 1048 -985H1060Q1085 -981 1085 -960Q1085 -881 935 -125Q954 -75 973 -75H1147Q1191 -374 1222 -374H1397Q1759 -374 1759 -773Q1759 -931 1547 -998H1085ZM2220 -1023H2619V-998H2220ZM2644 -985H2657Q2678 -985 2694 -923Q2639 -736 2594 -736H2407Q2145 -736 2145 -511Q2124 -511 2120 -337L2170 -299H2233Q2257 -299 2257 -324Q2170 -399 2170 -412V-449Q2178 -527 2245 -599H2257V-574Q2233 -453 2233 -437Q2332 -405 2332 -337Q2308 -280 2282 -274H2170Q2098 -274 2058 -362V-374Q2058 -798 2320 -798Q2381 -811 2482 -811L2569 -798ZM424 -811H524Q661 -811 661 -711Q661 -586 461 -586H387Q362 -586 362 -611Q387 -811 424 -811ZM1310 -811H1397Q1534 -811 1534 -711V-698Q1534 -561 1310 -561H1260L1235 -574Q1280 -811 1310 -811ZM437 -624L461 -611H499Q599 -611 599 -711L561 -736H486Q449 -736 437 -624ZM1335 -599L1359 -586Q1472 -602 1472 -698Q1472 -716 1434 -736H1372Q1335 -736 1335 -599ZM2282 -624H2582V-599H2257Q2261 -624 2282 -624Z"/>
</svg>