<svg xmlns="http://www.w3.org/2000/svg" viewBox="0 -2048 2048 2048">
	<path fill="#000000" d="M1714 -826L1716 -825Q1723 -826 1727 -826H1786Q1859 -826 1890 -759Q1895 -746 1897 -722Q1897 -700 1881 -666Q1881 -664 1862 -622Q1858 -611 1847 -587Q1847 -585 1805 -490Q1805 -488 1790 -454Q1790 -452 1779 -427Q1748 -353 1732 -326Q1720 -304 1690 -270Q1680 -259 1676 -256Q1658 -235 1646 -235H1640Q1621 -235 1613 -254Q1610 -260 1609 -267Q1611 -281 1621 -291Q1631 -296 1662 -332Q1681 -362 1686 -371Q1701 -398 1708 -434Q1713 -450 1716 -492Q1716 -526 1701 -578Q1690 -610 1662 -651Q1644 -674 1623 -692Q1576 -733 1523 -750Q1476 -763 1460 -763Q1447 -764 1439 -764H1424Q1388 -764 1336 -748Q1310 -740 1285 -724Q1274 -721 1272 -721Q1258 -721 1246 -736Q1241 -748 1241 -751V-756Q1241 -776 1278 -790Q1292 -801 1357 -817Q1400 -824 1424 -824Q1655 -825 1691 -825Q1695 -825 1714 -826ZM120 -635H134Q166 -635 202 -622Q233 -605 245 -576Q250 -560 250 -553Q249 -550 244 -550H183Q177 -550 176 -561Q171 -572 161 -578Q155 -583 128 -586Q86 -586 86 -561Q86 -551 98 -542Q112 -535 146 -529Q191 -519 211 -511Q257 -492 257 -451V-444Q257 -420 241 -396Q208 -357 132 -357H127Q87 -357 52 -373Q34 -382 21 -397Q6 -420 4 -434Q3 -434 3 -436V-450Q3 -451 4 -451H72Q74 -451 79 -432Q93 -406 133 -406Q163 -406 178 -425Q181 -433 181 -439Q181 -464 115 -474Q61 -487 39 -498Q20 -512 20 -518Q9 -530 9 -547Q9 -614 78 -629Q104 -635 120 -635ZM410 -635H418Q442 -635 476 -624Q524 -602 545 -555Q555 -525 555 -495V-493Q555 -456 537 -420Q521 -396 502 -383Q483 -366 437 -358Q420 -357 416 -357Q315 -357 281 -439Q271 -468 271 -486V-505Q271 -530 286 -565Q305 -600 333 -614Q348 -626 384 -633Q402 -635 410 -635ZM1010 -635H1013Q1030 -635 1030 -628V-600Q1030 -594 1030 -587Q1030 -585 1030 -577V-573Q1030 -565 1025 -565Q1013 -566 1005 -566H1001Q947 -566 932 -516Q929 -498 929 -480V-369Q929 -364 924 -364H857Q853 -364 852 -367V-372Q852 -380 851 -380Q852 -387 852 -392V-430L851 -434Q852 -435 852 -439Q852 -448 851 -448Q852 -458 852 -466V-525Q852 -533 851 -546Q852 -547 852 -550L851 -553Q852 -564 852 -571V-573Q852 -575 851 -579Q852 -580 852 -584Q852 -586 851 -586L852 -591V-618L851 -625Q854 -628 861 -628H899Q904 -628 909 -627Q911 -628 917 -628H919Q923 -628 925 -624V-613Q925 -610 925 -607Q925 -603 925 -600V-585Q925 -584 927 -584L940 -604Q976 -635 1010 -635ZM1155 -635H1167Q1180 -635 1210 -628Q1236 -621 1261 -598Q1280 -578 1286 -555L1288 -539Q1288 -534 1283 -534Q1282 -534 1282 -534H1281H1273Q1270 -534 1270 -534H1265H1238H1234Q1233 -534 1230 -534H1228Q1227 -534 1227 -534H1225H1220Q1212 -534 1212 -547Q1206 -558 1204 -558Q1191 -579 1162 -579H1154Q1124 -579 1107 -546Q1096 -522 1095 -495Q1095 -464 1111 -436Q1129 -415 1142 -415Q1142 -413 1153 -413H1163Q1169 -413 1185 -418Q1205 -429 1212 -449Q1216 -466 1218 -466Q1219 -466 1221 -466H1283Q1290 -466 1290 -461Q1284 -435 1277 -419Q1266 -401 1250 -387Q1215 -357 1158 -357Q1088 -357 1047 -406Q1019 -443 1019 -491Q1019 -536 1036 -566Q1051 -598 1088 -619Q1122 -634 1155 -635ZM1435 -635H1440Q1467 -635 1499 -622Q1522 -609 1533 -597Q1551 -580 1563 -547Q1572 -516 1572 -496V-484Q1571 -477 1565 -477H1376Q1373 -476 1373 -472Q1377 -448 1386 -435Q1403 -415 1421 -415Q1421 -413 1431 -413H1442Q1472 -413 1494 -436Q1497 -447 1505 -447H1563Q1564 -447 1565 -442Q1559 -427 1554 -417Q1543 -401 1538 -395Q1501 -357 1441 -357H1439Q1340 -357 1305 -443Q1297 -469 1297 -495Q1297 -574 1362 -616Q1398 -635 1435 -635ZM578 -628H640Q649 -628 649 -625V-476Q649 -434 671 -421Q678 -416 693 -416H698Q720 -416 729 -423Q742 -430 750 -452Q754 -466 754 -500V-625Q755 -628 759 -628H811Q814 -628 819 -627Q820 -628 825 -628Q829 -628 830 -625V-367Q829 -364 825 -364H761Q760 -364 758 -367V-392V-396Q758 -397 758 -398H756Q730 -366 700 -360Q688 -357 672 -357Q605 -357 584 -400Q572 -426 572 -466V-625Q572 -627 578 -628ZM347 -494Q347 -441 381 -419Q397 -413 410 -413H418Q435 -413 452 -424Q468 -438 474 -458Q479 -474 479 -498Q479 -562 433 -576L414 -579Q380 -579 363 -555Q347 -534 347 -494ZM1373 -526Q1375 -525 1381 -524Q1383 -524 1383 -525Q1393 -524 1398 -524H1472Q1475 -524 1478 -525Q1480 -524 1481 -524Q1482 -524 1486 -525Q1490 -524 1492 -524L1494 -526V-527Q1493 -541 1481 -559Q1467 -578 1447 -578Q1447 -579 1441 -579H1428Q1410 -577 1396 -568Q1380 -557 1373 -527Z"/>
</svg>