<svg xmlns="http://www.w3.org/2000/svg" viewBox="0 -2048 2048 2048">
	<path fill="#000000" d="M539 -1406H682Q809 -1406 831 -1370Q881 -1324 881 -1249Q878 -1249 878 -1246L883 -1243H1098Q1130 -1243 1148 -1199Q1148 -1188 1153 -1188H1197Q1203 -1188 1203 -1183V-1086Q1203 -1081 1197 -1081H16Q10 -1081 10 -1086V-1188H60L84 -1232Q104 -1243 148 -1243H330L335 -1246L332 -1252Q332 -1348 418 -1395Q445 -1406 539 -1406ZM448 -1249V-1243H765V-1249Q765 -1293 737 -1293H679Q635 -1293 589 -1296Q572 -1293 547 -1293L528 -1296Q451 -1296 451 -1274Q448 -1259 448 -1249ZM120 -1026H1093V-175Q1093 -53 991 -9Q966 -1 949 -1H258Q198 -1 139 -81Q120 -109 120 -216ZM338 -863V-216H443V-863ZM553 -863V-216H660V-863ZM770 -863V-216H875V-863Z"/>
</svg>