<svg xmlns="http://www.w3.org/2000/svg" viewBox="0 -2048 2048 2048">
	<path fill="#000000" d="M1767 -817Q1855 -792 1855 -729V-712Q1832 -624 1773 -624H1744Q1678 -624 1662 -717V-723Q1662 -807 1767 -817ZM2147 -817Q2246 -800 2246 -717Q2225 -624 2159 -624H2135Q2074 -624 2048 -717Q2066 -817 2147 -817ZM2545 -811H2667Q2679 -809 2679 -799V-343Q2697 -308 2743 -308H3094Q3164 -308 3164 -373V-799Q3166 -811 3176 -811H3299Q3310 -809 3310 -799V-373Q3288 -168 3123 -168H2720Q2582 -168 2533 -320V-799Q2535 -811 2545 -811ZM3585 -811H3632Q3698 -811 3807 -647L4082 -314H4088V-799Q4089 -811 4099 -811H4222Q4234 -809 4234 -799V-291Q4208 -168 4111 -168H4053Q3993 -168 3895 -314Q3617 -656 3602 -665V-180Q3602 -168 3591 -168H3468Q3456 -168 3456 -180V-682Q3478 -811 3585 -811ZM4392 -811H4514Q4526 -809 4526 -799V-180Q4526 -168 4514 -168H4392Q4380 -168 4380 -180V-799Q4382 -811 4392 -811ZM4871 -811H5444Q5455 -809 5455 -799V-676Q5455 -665 5444 -665H4871Q4839 -665 4824 -636V-355Q4824 -308 4888 -308H5239Q5303 -308 5303 -355V-413H4964Q4953 -413 4953 -425V-548Q4954 -560 4964 -560H5444Q5455 -558 5455 -548V-396Q5455 -230 5333 -180Q5310 -168 5268 -168H4847Q4709 -168 4672 -361V-571Q4672 -740 4783 -793Q4836 -811 4871 -811ZM5613 -811H5736Q5747 -809 5747 -799V-180Q5747 -168 5736 -168H5613Q5601 -168 5601 -180V-799Q5603 -811 5613 -811ZM6022 -811H6069Q6133 -811 6227 -671Q6511 -327 6513 -314H6525V-799Q6527 -811 6537 -811H6659Q6671 -809 6671 -799V-291Q6644 -168 6548 -168H6490Q6429 -168 6320 -332Q6090 -603 6051 -665H6040V-180Q6040 -168 6028 -168H5905Q5894 -168 5894 -180V-682Q5919 -811 6022 -811ZM7022 -811H7583Q7594 -809 7594 -799V-676Q7594 -665 7583 -665H6998Q6963 -647 6963 -612V-571Q6965 -560 6975 -560H7583Q7594 -558 7594 -548V-425Q7594 -413 7583 -413H6963V-373Q6963 -308 7033 -308H7583Q7594 -306 7594 -297V-180Q7594 -168 7583 -168H7004Q6844 -168 6817 -367V-612Q6817 -754 6963 -805Q6994 -811 7022 -811ZM1744 -425H1773Q1837 -425 1855 -332V-320Q1837 -232 1750 -232Q1662 -255 1662 -320V-332Q1678 -425 1744 -425ZM2141 -425H2165Q2227 -425 2246 -326Q2246 -247 2141 -232Q2048 -258 2048 -326Q2065 -425 2141 -425Z"/>
</svg>