<svg xmlns="http://www.w3.org/2000/svg" viewBox="0 -2048 2048 2048">
	<path fill="#000000" d="M879 -1011Q882 -1005 988 -611Q986 -611 926 -509L986 -408Q986 -391 879 -6Q488 -109 479 -113Q422 -212 417 -216H299Q172 -340 6 -509L301 -802Q392 -800 419 -800Q474 -902 482 -905Q819 -997 879 -1011ZM211 -559H561Q561 -563 735 -861Q478 -796 427 -781Q273 -625 211 -559ZM819 -810Q819 -807 647 -511Q647 -504 817 -213Q819 -209 819 -207H821Q880 -416 905 -509Q838 -752 821 -810ZM209 -459Q427 -235 433 -234L733 -157V-159Q563 -453 557 -459Z"/>
</svg>