<svg xmlns="http://www.w3.org/2000/svg" viewBox="0 -2048 2048 2048">
	<path fill="#000000" d="M516 -1021Q730 -1021 889 -856Q974 -768 1011 -623Q1022 -568 1022 -527V-502Q1022 -343 911 -197Q860 -139 826 -113Q681 -8 528 -8H503Q345 -8 196 -121Q127 -183 109 -213Q9 -351 9 -515Q9 -709 150 -864Q308 -1021 516 -1021ZM88 -513Q88 -330 232 -193Q361 -87 508 -87H524Q664 -87 789 -184Q852 -243 865 -266Q943 -382 943 -506V-522Q943 -685 816 -821L773 -858Q652 -942 516 -942Q329 -942 191 -794Q88 -667 88 -513ZM513 -825H514Q438 -771 438 -734Q438 -669 471 -669H474L476 -670L478 -668Q476 -504 476 -409V-387Q476 -359 516 -359Q540 -359 594 -393V-623Q594 -666 556 -708V-710H557Q588 -710 608 -687Q648 -732 674 -741Q714 -765 775 -784Q781 -784 786 -787L788 -784Q711 -687 711 -655V-379Q716 -359 751 -359Q779 -362 841 -411Q841 -412 865 -435H866V-433Q856 -399 799 -335Q726 -263 683 -247Q677 -242 671 -242H669Q597 -278 595 -280Q594 -280 517 -203H513Q464 -203 367 -245Q321 -269 283 -318Q284 -318 284 -319Q296 -318 303 -318H318Q348 -318 357 -333L358 -340V-580Q358 -607 339 -607H328Q291 -607 226 -527Q201 -495 166 -439H165Q165 -587 303 -721Q351 -760 391 -783Q471 -821 513 -825Z"/>
</svg>