<svg xmlns="http://www.w3.org/2000/svg" viewBox="0 -2048 2048 2048">
	<path fill="#000000" d="M557 -1028Q642 -1015 642 -942Q629 -857 557 -857Q471 -870 471 -942Q484 -1028 557 -1028ZM381 -899H390Q471 -886 471 -818V-809Q471 -770 424 -732Q411 -710 411 -689V-681Q411 -647 467 -591L471 -561V-552Q458 -471 390 -471H381Q313 -471 300 -557Q300 -592 355 -651L360 -677V-694Q360 -724 304 -784L300 -814Q313 -899 381 -899ZM724 -899H732Q814 -886 814 -818V-809Q814 -770 767 -732Q754 -710 754 -689V-681Q754 -647 809 -591L814 -561V-552Q801 -471 732 -471H724Q655 -471 642 -557Q642 -592 698 -651L702 -677V-694Q702 -724 647 -784L642 -814Q655 -899 724 -899ZM552 -771H561Q642 -758 642 -689V-681Q642 -641 595 -604Q582 -582 582 -561V-552Q582 -519 638 -463L642 -433V-424Q630 -343 561 -343H552Q484 -343 471 -428Q471 -463 527 -522L531 -548V-565Q531 -595 475 -655L471 -685Q484 -771 552 -771ZM214 -749Q278 -742 278 -685Q271 -621 214 -621Q150 -629 150 -685Q158 -749 214 -749ZM899 -749Q964 -742 964 -685Q956 -621 899 -621Q835 -629 835 -685Q843 -749 899 -749ZM43 -728Q86 -722 86 -685Q80 -642 43 -642Q0 -648 0 -685Q6 -728 43 -728ZM1071 -728Q1113 -722 1113 -685Q1108 -642 1071 -642Q1028 -648 1028 -685Q1034 -728 1071 -728ZM9 -214H30Q39 -213 39 -206V-81Q41 -30 90 -30Q141 -30 141 -86V-206Q143 -214 150 -214H171Q180 -213 180 -206V-73Q180 -37 231 -30Q278 -34 278 -69V-206Q280 -214 287 -214H313Q321 -213 321 -206V-77Q307 0 253 0H218Q188 0 158 -26Q133 0 103 0H73Q0 -15 0 -64V-206Q1 -214 9 -214ZM1024 -176Q1122 -164 1122 -90V-81Q1122 -73 1113 -73H968Q982 -34 1015 -34H1036L1079 -47H1101Q1109 -46 1109 -39Q1068 0 1028 0Q929 -11 929 -90Q929 -161 1024 -176ZM373 -171H390Q398 -170 398 -163V-77Q398 -30 441 -30Q469 -30 475 -69V-163Q477 -171 484 -171H505Q514 -170 514 -163V-64Q514 -30 552 -30Q587 -36 587 -64V-163Q588 -171 595 -171H617Q625 -170 625 -163V-56Q625 -9 557 0H548Q522 0 492 -21Q469 0 441 0H428Q360 0 360 -81V-158Q360 -165 373 -171ZM677 -171H698Q707 -170 707 -163V-13Q707 -4 698 -4H677Q668 -4 668 -13V-163Q669 -171 677 -171ZM801 -171H891Q899 -170 899 -163V-150Q899 -141 891 -141H797Q790 -141 784 -128V-124Q793 -114 891 -86Q912 -64 912 -47Q912 -13 865 -4H754Q745 -4 745 -13V-26Q746 -34 754 -34H861Q869 -34 869 -43V-51Q865 -63 758 -94Q745 -110 745 -124V-141Q764 -171 801 -171ZM968 -103H1083V-107Q1065 -146 1024 -146Q968 -134 968 -103Z"/>
</svg>